<?xml version="1.0" encoding="UTF-8" standalone="no"?>
<!DOCTYPE svg PUBLIC "-//W3C//DTD SVG 1.1//EN"
 "http://www.w3.org/Graphics/SVG/1.1/DTD/svg11.dtd">
<!-- Generated by graphviz version 2.40.1 (20161225.0304)
 -->
<!-- Title: G Pages: 1 -->
<svg width="2077pt" height="625pt"
 viewBox="0.00 0.00 2076.64 625.22" xmlns="http://www.w3.org/2000/svg" xmlns:xlink="http://www.w3.org/1999/xlink">
<g id="graph0" class="graph" transform="scale(1 1) rotate(0) translate(4 621.2153)">
<title>G</title>
<polygon fill="#ffffff" stroke="transparent" points="-4,4 -4,-621.2153 2072.6367,-621.2153 2072.6367,4 -4,4"/>
<!-- http://www.w3.org/1999/02/22&#45;rdf&#45;syntax&#45;ns#Alt -->
<g id="node1" class="node">
<title>http://www.w3.org/1999/02/22&#45;rdf&#45;syntax&#45;ns#Alt</title>
<ellipse fill="#1f77b4" stroke="#1f77b4" cx="265.5183" cy="-350.3711" rx="44.5955" ry="16.0303"/>
<text text-anchor="middle" x="265.5183" y="-346.6711" font-family="Times,serif" font-size="14.00" fill="#000000">rdf:Alt</text>
</g>
<!-- http://www.w3.org/2000/01/rdf&#45;schema#Class -->
<g id="node2" class="node">
<title>http://www.w3.org/2000/01/rdf&#45;schema#Class</title>
<ellipse fill="#1f77b4" stroke="#1f77b4" cx="700.5183" cy="-350.3711" rx="62.8651" ry="16.0303"/>
<text text-anchor="middle" x="700.5183" y="-346.6711" font-family="Times,serif" font-size="14.00" fill="#000000">rdfs:Class</text>
</g>
<!-- http://xmlns.com/foaf/0.1/Person -->
<g id="node3" class="node">
<title>http://xmlns.com/foaf/0.1/Person</title>
<ellipse fill="#1f77b4" stroke="#1f77b4" cx="870.5183" cy="-99.7904" rx="68.6788" ry="16.0303"/>
<text text-anchor="middle" x="870.5183" y="-96.0904" font-family="Times,serif" font-size="14.00" fill="#000000">foaf:Person</text>
</g>
<!-- http://www.w3.org/1999/02/22&#45;rdf&#45;syntax&#45;ns#Property -->
<g id="node4" class="node">
<title>http://www.w3.org/1999/02/22&#45;rdf&#45;syntax&#45;ns#Property</title>
<ellipse fill="#1f77b4" stroke="#1f77b4" cx="1241.5183" cy="-183.3173" rx="74.4932" ry="16.0303"/>
<text text-anchor="middle" x="1241.5183" y="-179.6173" font-family="Times,serif" font-size="14.00" fill="#000000">rdf:Property</text>
</g>
<!-- http://www.w3.org/1999/02/22&#45;rdf&#45;syntax&#45;ns#Bag -->
<g id="node5" class="node">
<title>http://www.w3.org/1999/02/22&#45;rdf&#45;syntax&#45;ns#Bag</title>
<ellipse fill="#1f77b4" stroke="#1f77b4" cx="987.5183" cy="-183.3173" rx="49.4949" ry="16.0303"/>
<text text-anchor="middle" x="987.5183" y="-179.6173" font-family="Times,serif" font-size="14.00" fill="#000000">rdf:Bag</text>
</g>
<!-- http://www.w3.org/1999/02/22&#45;rdf&#45;syntax&#45;ns#Seq -->
<g id="node6" class="node">
<title>http://www.w3.org/1999/02/22&#45;rdf&#45;syntax&#45;ns#Seq</title>
<ellipse fill="#1f77b4" stroke="#1f77b4" cx="346.5183" cy="-183.3173" rx="48.5816" ry="16.0303"/>
<text text-anchor="middle" x="346.5183" y="-179.6173" font-family="Times,serif" font-size="14.00" fill="#000000">rdf:Seq</text>
</g>
<!-- http://www.iiitd.ac.in/sweb/a1/q2/AppleJuice -->
<g id="node7" class="node">
<title>http://www.iiitd.ac.in/sweb/a1/q2/AppleJuice</title>
<ellipse fill="#e377c2" stroke="#e377c2" cx="853.5183" cy="-183.3173" rx="66.4361" ry="16.0303"/>
<text text-anchor="middle" x="853.5183" y="-179.6173" font-family="Times,serif" font-size="14.00" fill="#000000">AppleJuice</text>
</g>
<!-- http://www.iiitd.ac.in/sweb/a1/q2/FruitJuice -->
<g id="node9" class="node">
<title>http://www.iiitd.ac.in/sweb/a1/q2/FruitJuice</title>
<ellipse fill="#e377c2" stroke="#e377c2" cx="700.5183" cy="-266.8442" rx="62.8651" ry="16.0303"/>
<text text-anchor="middle" x="700.5183" y="-263.1442" font-family="Times,serif" font-size="14.00" fill="#000000">FruitJuice</text>
</g>
<!-- http://www.iiitd.ac.in/sweb/a1/q2/AppleJuice&#45;&gt;http://www.iiitd.ac.in/sweb/a1/q2/FruitJuice -->
<g id="edge14" class="edge">
<title>http://www.iiitd.ac.in/sweb/a1/q2/AppleJuice&#45;&gt;http://www.iiitd.ac.in/sweb/a1/q2/FruitJuice</title>
<path fill="none" stroke="#000000" d="M845.2482,-199.7131C839.0074,-210.5198 829.4808,-224.1788 817.5183,-232.5807 801.9557,-243.5112 782.9044,-250.9897 764.7305,-256.0929"/>
<polygon fill="#000000" stroke="#000000" points="763.8346,-252.7094 755.042,-258.6205 765.6017,-259.4827 763.8346,-252.7094"/>
<text text-anchor="middle" x="891.0183" y="-221.3807" font-family="Times,serif" font-size="14.00" fill="#000000">rdfs:subClassOf</text>
</g>
<!-- http://www.iiitd.ac.in/sweb/a1/q2/Orange -->
<g id="node8" class="node">
<title>http://www.iiitd.ac.in/sweb/a1/q2/Orange</title>
<ellipse fill="#e377c2" stroke="#e377c2" cx="377.5183" cy="-350.3711" rx="49.4949" ry="16.0303"/>
<text text-anchor="middle" x="377.5183" y="-346.6711" font-family="Times,serif" font-size="14.00" fill="#000000">Orange</text>
</g>
<!-- http://www.iiitd.ac.in/sweb/a1/q2/FruitJuice&#45;&gt;http://www.w3.org/2000/01/rdf&#45;schema#Class -->
<g id="edge20" class="edge">
<title>http://www.iiitd.ac.in/sweb/a1/q2/FruitJuice&#45;&gt;http://www.w3.org/2000/01/rdf&#45;schema#Class</title>
<path fill="none" stroke="#000000" d="M700.5183,-283.3464C700.5183,-294.901 700.5183,-310.5878 700.5183,-323.8806"/>
<polygon fill="#000000" stroke="#000000" points="697.0184,-323.9031 700.5183,-333.9032 704.0184,-323.9032 697.0184,-323.9031"/>
<text text-anchor="middle" x="705.0183" y="-304.9076" font-family="Times,serif" font-size="14.00" fill="#000000">a</text>
</g>
<!-- http://www.w3.org/1999/02/22&#45;rdf&#45;syntax&#45;ns#nil -->
<g id="node10" class="node">
<title>http://www.w3.org/1999/02/22&#45;rdf&#45;syntax&#45;ns#nil</title>
<ellipse fill="#e377c2" stroke="#e377c2" cx="361.5183" cy="-600.9518" rx="42.3529" ry="16.0303"/>
<text text-anchor="middle" x="361.5183" y="-597.2518" font-family="Times,serif" font-size="14.00" fill="#000000">rdf:nil</text>
</g>
<!-- fa778cddd413744e7b2b3cec570666a03b4 -->
<g id="node11" class="node">
<title>fa778cddd413744e7b2b3cec570666a03b4</title>
<ellipse fill="#e377c2" stroke="#e377c2" cx="416.5183" cy="-517.4249" rx="11" ry="11"/>
</g>
<!-- fa778cddd413744e7b2b3cec570666a03b4&#45;&gt;http://www.w3.org/1999/02/22&#45;rdf&#45;syntax&#45;ns#nil -->
<g id="edge7" class="edge">
<title>fa778cddd413744e7b2b3cec570666a03b4&#45;&gt;http://www.w3.org/1999/02/22&#45;rdf&#45;syntax&#45;ns#nil</title>
<path fill="none" stroke="#000000" d="M407.4433,-524.147C399.429,-530.4855 387.9011,-540.6406 380.5183,-551.6884 375.7912,-558.7622 371.9943,-567.182 369.0744,-575.0422"/>
<polygon fill="#000000" stroke="#000000" points="365.7453,-573.9611 365.8411,-584.5555 372.373,-576.2137 365.7453,-573.9611"/>
<text text-anchor="middle" x="408.0183" y="-555.4884" font-family="Times,serif" font-size="14.00" fill="#000000">rdf:rest</text>
</g>
<!-- http://www.iiitd.ac.in/sweb/a1/q2/Banana -->
<g id="node21" class="node">
<title>http://www.iiitd.ac.in/sweb/a1/q2/Banana</title>
<ellipse fill="#e377c2" stroke="#e377c2" cx="471.5183" cy="-600.9518" rx="49.4949" ry="16.0303"/>
<text text-anchor="middle" x="471.5183" y="-597.2518" font-family="Times,serif" font-size="14.00" fill="#000000">Banana</text>
</g>
<!-- fa778cddd413744e7b2b3cec570666a03b4&#45;&gt;http://www.iiitd.ac.in/sweb/a1/q2/Banana -->
<g id="edge1" class="edge">
<title>fa778cddd413744e7b2b3cec570666a03b4&#45;&gt;http://www.iiitd.ac.in/sweb/a1/q2/Banana</title>
<path fill="none" stroke="#000000" d="M422.6144,-526.6829C430.4019,-538.5096 444.1824,-559.4376 455.1345,-576.0702"/>
<polygon fill="#000000" stroke="#000000" points="452.4492,-578.3565 460.872,-584.7836 458.2956,-574.5068 452.4492,-578.3565"/>
<text text-anchor="middle" x="477.5183" y="-555.4884" font-family="Times,serif" font-size="14.00" fill="#000000">rdf:first</text>
</g>
<!-- http://www.w3.org/2000/01/rdf&#45;schema#Resource -->
<g id="node12" class="node">
<title>http://www.w3.org/2000/01/rdf&#45;schema#Resource</title>
<ellipse fill="#e377c2" stroke="#e377c2" cx="1415.5183" cy="-183.3173" rx="82.0488" ry="16.0303"/>
<text text-anchor="middle" x="1415.5183" y="-179.6173" font-family="Times,serif" font-size="14.00" fill="#000000">rdfs:Resource</text>
</g>
<!-- fa778cddd413744e7b2b3cec570666a03b2 -->
<g id="node13" class="node">
<title>fa778cddd413744e7b2b3cec570666a03b2</title>
<ellipse fill="#e377c2" stroke="#e377c2" cx="455.5183" cy="-350.3711" rx="11" ry="11"/>
</g>
<!-- http://www.iiitd.ac.in/sweb/a1/q2/Apple -->
<g id="node17" class="node">
<title>http://www.iiitd.ac.in/sweb/a1/q2/Apple</title>
<ellipse fill="#e377c2" stroke="#e377c2" cx="267.5183" cy="-433.898" rx="41.0244" ry="16.0303"/>
<text text-anchor="middle" x="267.5183" y="-430.198" font-family="Times,serif" font-size="14.00" fill="#000000">Apple</text>
</g>
<!-- fa778cddd413744e7b2b3cec570666a03b2&#45;&gt;http://www.iiitd.ac.in/sweb/a1/q2/Apple -->
<g id="edge2" class="edge">
<title>fa778cddd413744e7b2b3cec570666a03b2&#45;&gt;http://www.iiitd.ac.in/sweb/a1/q2/Apple</title>
<path fill="none" stroke="#000000" d="M447.3707,-357.9358C443.8947,-360.9062 439.6842,-364.1837 435.5183,-366.6346 423.9207,-373.4575 352.6107,-401.2709 306.7007,-418.9258"/>
<polygon fill="#000000" stroke="#000000" points="305.401,-415.6756 297.3202,-422.5277 307.9103,-422.2104 305.401,-415.6756"/>
<text text-anchor="middle" x="420.5183" y="-388.4346" font-family="Times,serif" font-size="14.00" fill="#000000">rdf:first</text>
</g>
<!-- fa778cddd413744e7b2b3cec570666a03b3 -->
<g id="node25" class="node">
<title>fa778cddd413744e7b2b3cec570666a03b3</title>
<ellipse fill="#e377c2" stroke="#e377c2" cx="455.5183" cy="-433.898" rx="11" ry="11"/>
</g>
<!-- fa778cddd413744e7b2b3cec570666a03b2&#45;&gt;fa778cddd413744e7b2b3cec570666a03b3 -->
<g id="edge12" class="edge">
<title>fa778cddd413744e7b2b3cec570666a03b2&#45;&gt;fa778cddd413744e7b2b3cec570666a03b3</title>
<path fill="none" stroke="#000000" d="M455.5183,-361.6359C455.5183,-374.6609 455.5183,-396.3881 455.5183,-412.6236"/>
<polygon fill="#000000" stroke="#000000" points="452.0184,-412.8116 455.5183,-422.8117 459.0184,-412.8117 452.0184,-412.8116"/>
<text text-anchor="middle" x="483.0183" y="-388.4346" font-family="Times,serif" font-size="14.00" fill="#000000">rdf:rest</text>
</g>
<!-- http://www.iiitd.ac.in/sweb/a1/q2/MixedFruitJuice -->
<g id="node14" class="node">
<title>http://www.iiitd.ac.in/sweb/a1/q2/MixedFruitJuice</title>
<ellipse fill="#e377c2" stroke="#e377c2" cx="507.5183" cy="-183.3173" rx="94.0904" ry="16.0303"/>
<text text-anchor="middle" x="507.5183" y="-179.6173" font-family="Times,serif" font-size="14.00" fill="#000000">MixedFruitJuice</text>
</g>
<!-- http://www.iiitd.ac.in/sweb/a1/q2/MixedFruitJuice&#45;&gt;http://www.iiitd.ac.in/sweb/a1/q2/FruitJuice -->
<g id="edge23" class="edge">
<title>http://www.iiitd.ac.in/sweb/a1/q2/MixedFruitJuice&#45;&gt;http://www.iiitd.ac.in/sweb/a1/q2/FruitJuice</title>
<path fill="none" stroke="#000000" d="M526.9281,-199.4451C540.6195,-210.1323 559.7879,-223.7585 578.5183,-232.5807 598.1023,-241.8051 620.6555,-249.0004 641.0021,-254.3637"/>
<polygon fill="#000000" stroke="#000000" points="640.2366,-257.7803 650.7905,-256.8502 641.9601,-250.9958 640.2366,-257.7803"/>
<text text-anchor="middle" x="636.0183" y="-221.3807" font-family="Times,serif" font-size="14.00" fill="#000000">rdfs:subClassOf</text>
</g>
<!-- fa778cddd413744e7b2b3cec570666a03b1 -->
<g id="node29" class="node">
<title>fa778cddd413744e7b2b3cec570666a03b1</title>
<ellipse fill="#e377c2" stroke="#e377c2" cx="415.5183" cy="-266.8442" rx="11" ry="11"/>
</g>
<!-- http://www.iiitd.ac.in/sweb/a1/q2/MixedFruitJuice&#45;&gt;fa778cddd413744e7b2b3cec570666a03b1 -->
<g id="edge21" class="edge">
<title>http://www.iiitd.ac.in/sweb/a1/q2/MixedFruitJuice&#45;&gt;fa778cddd413744e7b2b3cec570666a03b1</title>
<path fill="none" stroke="#000000" d="M456.2209,-197.133C438.4858,-203.011 421.7328,-210.2066 416.5183,-217.5807 410.7767,-225.7003 410.0434,-236.6042 410.9539,-246.0894"/>
<polygon fill="#000000" stroke="#000000" points="407.4963,-246.6332 412.5009,-255.9715 414.4121,-245.5505 407.4963,-246.6332"/>
<text text-anchor="middle" x="478.5183" y="-221.3807" font-family="Times,serif" font-size="14.00" fill="#000000">property:madeOf</text>
</g>
<!-- http://www.iiitd.ac.in/sweb/a1/q2/property#madeOf -->
<g id="node15" class="node">
<title>http://www.iiitd.ac.in/sweb/a1/q2/property#madeOf</title>
<ellipse fill="#e377c2" stroke="#e377c2" cx="1529.5183" cy="-99.7904" rx="98.9899" ry="16.0303"/>
<text text-anchor="middle" x="1529.5183" y="-96.0904" font-family="Times,serif" font-size="14.00" fill="#000000">property:madeOf</text>
</g>
<!-- http://www.iiitd.ac.in/sweb/a1/q2/property#madeOf&#45;&gt;http://www.w3.org/1999/02/22&#45;rdf&#45;syntax&#45;ns#Property -->
<g id="edge31" class="edge">
<title>http://www.iiitd.ac.in/sweb/a1/q2/property#madeOf&#45;&gt;http://www.w3.org/1999/02/22&#45;rdf&#45;syntax&#45;ns#Property</title>
<path fill="none" stroke="#000000" d="M1515.181,-115.912C1504.1544,-127.1821 1487.9028,-141.5148 1470.5183,-149.0538 1410.5356,-175.0662 1389.0833,-156.7614 1324.5183,-167.0538 1318.428,-168.0247 1312.102,-169.1147 1305.7816,-170.2587"/>
<polygon fill="#000000" stroke="#000000" points="1305.0839,-166.8283 1295.8888,-172.0915 1306.3591,-173.7112 1305.0839,-166.8283"/>
<text text-anchor="middle" x="1498.0183" y="-137.8538" font-family="Times,serif" font-size="14.00" fill="#000000">a</text>
</g>
<!-- http://www.iiitd.ac.in/sweb/a1/q2/property#madeOf&#45;&gt;http://www.w3.org/2000/01/rdf&#45;schema#Resource -->
<g id="edge9" class="edge">
<title>http://www.iiitd.ac.in/sweb/a1/q2/property#madeOf&#45;&gt;http://www.w3.org/2000/01/rdf&#45;schema#Resource</title>
<path fill="none" stroke="#000000" d="M1587.8841,-113.0502C1611.3689,-121.1199 1630.0642,-133.0034 1616.5183,-149.0538 1608.5688,-158.4731 1549.7774,-167.7847 1497.8168,-174.3179"/>
<polygon fill="#000000" stroke="#000000" points="1497.3668,-170.8468 1487.871,-175.5457 1498.2245,-177.7941 1497.3668,-170.8468"/>
<text text-anchor="middle" x="1658.0183" y="-137.8538" font-family="Times,serif" font-size="14.00" fill="#000000">rdfs:range</text>
</g>
<!-- http://www.iiitd.ac.in/sweb/a1/q2/property#madeOf&#45;&gt;http://www.w3.org/2000/01/rdf&#45;schema#Resource -->
<g id="edge33" class="edge">
<title>http://www.iiitd.ac.in/sweb/a1/q2/property#madeOf&#45;&gt;http://www.w3.org/2000/01/rdf&#45;schema#Resource</title>
<path fill="none" stroke="#000000" d="M1525.6714,-116.3696C1522.4358,-126.9779 1516.8074,-140.3366 1507.5183,-149.0538 1499.5253,-156.5548 1489.742,-162.4494 1479.5724,-167.0713"/>
<polygon fill="#000000" stroke="#000000" points="1478.0643,-163.9076 1470.1647,-170.9677 1480.7429,-170.3748 1478.0643,-163.9076"/>
<text text-anchor="middle" x="1560.5183" y="-137.8538" font-family="Times,serif" font-size="14.00" fill="#000000">rdfs:domain</text>
</g>
<!-- http://www.iiitd.ac.in/sweb/a1/q2/OrangeJuice -->
<g id="node16" class="node">
<title>http://www.iiitd.ac.in/sweb/a1/q2/OrangeJuice</title>
<ellipse fill="#e377c2" stroke="#e377c2" cx="694.5183" cy="-183.3173" rx="74.9067" ry="16.0303"/>
<text text-anchor="middle" x="694.5183" y="-179.6173" font-family="Times,serif" font-size="14.00" fill="#000000">OrangeJuice</text>
</g>
<!-- http://www.iiitd.ac.in/sweb/a1/q2/OrangeJuice&#45;&gt;http://www.iiitd.ac.in/sweb/a1/q2/FruitJuice -->
<g id="edge35" class="edge">
<title>http://www.iiitd.ac.in/sweb/a1/q2/OrangeJuice&#45;&gt;http://www.iiitd.ac.in/sweb/a1/q2/FruitJuice</title>
<path fill="none" stroke="#000000" d="M695.7037,-199.8195C696.5337,-211.3741 697.6605,-227.0609 698.6154,-240.3537"/>
<polygon fill="#000000" stroke="#000000" points="695.1278,-240.6527 699.3353,-250.3762 702.1098,-240.1511 695.1278,-240.6527"/>
<text text-anchor="middle" x="756.0183" y="-221.3807" font-family="Times,serif" font-size="14.00" fill="#000000">rdfs:subClassOf</text>
</g>
<!-- ub1bL43C34 -->
<g id="node18" class="node">
<title>ub1bL43C34</title>
<ellipse fill="#e377c2" stroke="#e377c2" cx="224.5183" cy="-266.8442" rx="11" ry="11"/>
</g>
<!-- ub1bL43C34&#45;&gt;http://www.w3.org/1999/02/22&#45;rdf&#45;syntax&#45;ns#Alt -->
<g id="edge28" class="edge">
<title>ub1bL43C34&#45;&gt;http://www.w3.org/1999/02/22&#45;rdf&#45;syntax&#45;ns#Alt</title>
<path fill="none" stroke="#000000" d="M229.3825,-276.7538C235.1986,-288.6025 245.1485,-308.873 253.1369,-325.1471"/>
<polygon fill="#000000" stroke="#000000" points="250.0192,-326.7388 257.5675,-334.1734 256.303,-323.6543 250.0192,-326.7388"/>
<text text-anchor="middle" x="254.0183" y="-304.9076" font-family="Times,serif" font-size="14.00" fill="#000000">a</text>
</g>
<!-- ub1bL43C34&#45;&gt;http://www.iiitd.ac.in/sweb/a1/q2/Orange -->
<g id="edge13" class="edge">
<title>ub1bL43C34&#45;&gt;http://www.iiitd.ac.in/sweb/a1/q2/Orange</title>
<path fill="none" stroke="#000000" d="M234.557,-272.3246C256.1609,-284.1187 307.9304,-312.3812 342.8713,-331.4563"/>
<polygon fill="#000000" stroke="#000000" points="341.3474,-334.612 351.8017,-336.3317 344.7016,-328.4679 341.3474,-334.612"/>
<text text-anchor="middle" x="337.0183" y="-304.9076" font-family="Times,serif" font-size="14.00" fill="#000000">rdf:_2</text>
</g>
<!-- ub1bL43C34&#45;&gt;http://www.iiitd.ac.in/sweb/a1/q2/Apple -->
<g id="edge32" class="edge">
<title>ub1bL43C34&#45;&gt;http://www.iiitd.ac.in/sweb/a1/q2/Apple</title>
<path fill="none" stroke="#000000" d="M215.5876,-273.5575C195.4622,-289.5416 149.7383,-331.1703 168.5183,-366.6346 181.1113,-390.4152 206.2972,-407.3488 228.113,-418.2774"/>
<polygon fill="#000000" stroke="#000000" points="226.6751,-421.4691 237.2098,-422.5958 229.6771,-415.1454 226.6751,-421.4691"/>
<text text-anchor="middle" x="190.0183" y="-346.6711" font-family="Times,serif" font-size="14.00" fill="#000000">rdf:_3</text>
</g>
<!-- http://www.iiitd.ac.in/sweb/a1/q2/Pineapple -->
<g id="node22" class="node">
<title>http://www.iiitd.ac.in/sweb/a1/q2/Pineapple</title>
<ellipse fill="#e377c2" stroke="#e377c2" cx="61.5183" cy="-350.3711" rx="61.5366" ry="16.0303"/>
<text text-anchor="middle" x="61.5183" y="-346.6711" font-family="Times,serif" font-size="14.00" fill="#000000">Pineapple</text>
</g>
<!-- ub1bL43C34&#45;&gt;http://www.iiitd.ac.in/sweb/a1/q2/Pineapple -->
<g id="edge19" class="edge">
<title>ub1bL43C34&#45;&gt;http://www.iiitd.ac.in/sweb/a1/q2/Pineapple</title>
<path fill="none" stroke="#000000" d="M213.517,-267.7425C190.992,-270.0266 138.6986,-277.6487 102.5183,-301.1076 92.7545,-307.4384 84.1258,-316.8179 77.3342,-325.6988"/>
<polygon fill="#000000" stroke="#000000" points="74.4019,-323.7816 71.4085,-333.9448 80.0864,-327.8666 74.4019,-323.7816"/>
<text text-anchor="middle" x="124.0183" y="-304.9076" font-family="Times,serif" font-size="14.00" fill="#000000">rdf:_1</text>
</g>
<!-- ub1bL37C25 -->
<g id="node19" class="node">
<title>ub1bL37C25</title>
<ellipse fill="#e377c2" stroke="#e377c2" cx="572.5183" cy="-99.7904" rx="11" ry="11"/>
</g>
<!-- ub1bL37C25&#45;&gt;http://www.w3.org/1999/02/22&#45;rdf&#45;syntax&#45;ns#Seq -->
<g id="edge5" class="edge">
<title>ub1bL37C25&#45;&gt;http://www.w3.org/1999/02/22&#45;rdf&#45;syntax&#45;ns#Seq</title>
<path fill="none" stroke="#000000" d="M562.0965,-103.8183C540.07,-112.3141 487.1415,-132.6373 442.5183,-149.0538 425.4638,-155.328 406.6448,-162.0817 390.221,-167.9208"/>
<polygon fill="#000000" stroke="#000000" points="388.5958,-164.7836 380.3415,-171.4257 390.9363,-171.3807 388.5958,-164.7836"/>
<text text-anchor="middle" x="487.0183" y="-137.8538" font-family="Times,serif" font-size="14.00" fill="#000000">a</text>
</g>
<!-- ub1bL37C25&#45;&gt;http://www.iiitd.ac.in/sweb/a1/q2/AppleJuice -->
<g id="edge37" class="edge">
<title>ub1bL37C25&#45;&gt;http://www.iiitd.ac.in/sweb/a1/q2/AppleJuice</title>
<path fill="none" stroke="#000000" d="M583.435,-101.7666C603.9419,-105.774 649.2405,-116.0406 683.5183,-134.0538 693.0422,-139.0587 692.8105,-144.4157 702.5183,-149.0538 706.8458,-151.1214 753.287,-161.5345 793.5362,-170.3443"/>
<polygon fill="#000000" stroke="#000000" points="792.8222,-173.7708 803.3387,-172.4852 794.3159,-166.932 792.8222,-173.7708"/>
<text text-anchor="middle" x="724.0183" y="-137.8538" font-family="Times,serif" font-size="14.00" fill="#000000">rdf:_3</text>
</g>
<!-- ub1bL37C25&#45;&gt;http://www.iiitd.ac.in/sweb/a1/q2/MixedFruitJuice -->
<g id="edge27" class="edge">
<title>ub1bL37C25&#45;&gt;http://www.iiitd.ac.in/sweb/a1/q2/MixedFruitJuice</title>
<path fill="none" stroke="#000000" d="M561.5791,-102.0673C546.6025,-105.8327 520.2399,-114.9259 508.5183,-134.0538 504.4621,-140.673 503.156,-148.79 503.1599,-156.511"/>
<polygon fill="#000000" stroke="#000000" points="499.6764,-156.8749 503.8421,-166.6165 506.6606,-156.4034 499.6764,-156.8749"/>
<text text-anchor="middle" x="530.0183" y="-137.8538" font-family="Times,serif" font-size="14.00" fill="#000000">rdf:_1</text>
</g>
<!-- ub1bL37C25&#45;&gt;http://www.iiitd.ac.in/sweb/a1/q2/OrangeJuice -->
<g id="edge8" class="edge">
<title>ub1bL37C25&#45;&gt;http://www.iiitd.ac.in/sweb/a1/q2/OrangeJuice</title>
<path fill="none" stroke="#000000" d="M569.6611,-110.4307C567.4206,-121.3229 565.944,-138.1557 574.5183,-149.0538 581.5516,-157.9933 603.0028,-165.3637 625.8615,-170.9483"/>
<polygon fill="#000000" stroke="#000000" points="625.1741,-174.3817 635.7063,-173.2317 626.7557,-167.5627 625.1741,-174.3817"/>
<text text-anchor="middle" x="596.0183" y="-137.8538" font-family="Times,serif" font-size="14.00" fill="#000000">rdf:_2</text>
</g>
<!-- ub1bL31C20 -->
<g id="node20" class="node">
<title>ub1bL31C20</title>
<ellipse fill="#e377c2" stroke="#e377c2" cx="771.5183" cy="-99.7904" rx="11" ry="11"/>
</g>
<!-- ub1bL31C20&#45;&gt;http://www.w3.org/1999/02/22&#45;rdf&#45;syntax&#45;ns#Bag -->
<g id="edge36" class="edge">
<title>ub1bL31C20&#45;&gt;http://www.w3.org/1999/02/22&#45;rdf&#45;syntax&#45;ns#Bag</title>
<path fill="none" stroke="#000000" d="M779.5534,-107.3252C783.2563,-110.4358 787.8583,-113.8271 792.5183,-116.0538 823.8385,-131.0198 835.4875,-123.381 868.5183,-134.0538 896.0719,-142.9569 926.2004,-155.4587 949.2479,-165.6402"/>
<polygon fill="#000000" stroke="#000000" points="948.1055,-168.9632 958.6637,-169.8444 950.9595,-162.5714 948.1055,-168.9632"/>
<text text-anchor="middle" x="913.0183" y="-137.8538" font-family="Times,serif" font-size="14.00" fill="#000000">a</text>
</g>
<!-- ub1bL31C20&#45;&gt;http://www.iiitd.ac.in/sweb/a1/q2/AppleJuice -->
<g id="edge15" class="edge">
<title>ub1bL31C20&#45;&gt;http://www.iiitd.ac.in/sweb/a1/q2/AppleJuice</title>
<path fill="none" stroke="#000000" d="M779.6582,-107.6061C786.8016,-114.5012 797.4379,-124.8557 806.5183,-134.0538 814.6996,-142.3411 823.5444,-151.5456 831.3305,-159.734"/>
<polygon fill="#000000" stroke="#000000" points="828.996,-162.3589 838.4149,-167.2103 834.0772,-157.5442 828.996,-162.3589"/>
<text text-anchor="middle" x="843.0183" y="-137.8538" font-family="Times,serif" font-size="14.00" fill="#000000">rdf:_2</text>
</g>
<!-- ub1bL31C20&#45;&gt;http://www.iiitd.ac.in/sweb/a1/q2/MixedFruitJuice -->
<g id="edge10" class="edge">
<title>ub1bL31C20&#45;&gt;http://www.iiitd.ac.in/sweb/a1/q2/MixedFruitJuice</title>
<path fill="none" stroke="#000000" d="M760.5986,-101.4234C737.6121,-105.1207 682.8634,-115.3028 640.5183,-134.0538 629.3594,-138.9952 628.5603,-143.8564 617.5183,-149.0538 602.756,-156.0024 586.2332,-162.0015 570.5706,-166.9508"/>
<polygon fill="#000000" stroke="#000000" points="569.4899,-163.6213 560.953,-169.8959 571.5396,-170.3145 569.4899,-163.6213"/>
<text text-anchor="middle" x="662.0183" y="-137.8538" font-family="Times,serif" font-size="14.00" fill="#000000">rdf:_3</text>
</g>
<!-- ub1bL31C20&#45;&gt;http://www.iiitd.ac.in/sweb/a1/q2/OrangeJuice -->
<g id="edge11" class="edge">
<title>ub1bL31C20&#45;&gt;http://www.iiitd.ac.in/sweb/a1/q2/OrangeJuice</title>
<path fill="none" stroke="#000000" d="M768.7113,-110.6111C765.4968,-121.3364 759.3646,-137.7554 749.5183,-149.0538 745.0489,-154.1823 739.6223,-158.7997 733.94,-162.8613"/>
<polygon fill="#000000" stroke="#000000" points="731.9412,-159.9868 725.5136,-168.4092 735.7906,-165.8334 731.9412,-159.9868"/>
<text text-anchor="middle" x="781.0183" y="-137.8538" font-family="Times,serif" font-size="14.00" fill="#000000">rdf:_1</text>
</g>
<!-- http://www.iiitd.ac.in/sweb/a1/q2/Papaya -->
<g id="node23" class="node">
<title>http://www.iiitd.ac.in/sweb/a1/q2/Papaya</title>
<ellipse fill="#e377c2" stroke="#e377c2" cx="494.5183" cy="-517.4249" rx="48.1667" ry="16.0303"/>
<text text-anchor="middle" x="494.5183" y="-513.7249" font-family="Times,serif" font-size="14.00" fill="#000000">Papaya</text>
</g>
<!-- http://www.iiitd.ac.in/sweb/a1/q2/property#Preference -->
<g id="node24" class="node">
<title>http://www.iiitd.ac.in/sweb/a1/q2/property#Preference</title>
<ellipse fill="#e377c2" stroke="#e377c2" cx="1071.5183" cy="-99.7904" rx="114.6026" ry="16.0303"/>
<text text-anchor="middle" x="1071.5183" y="-96.0904" font-family="Times,serif" font-size="14.00" fill="#000000">property:Preference</text>
</g>
<!-- http://www.iiitd.ac.in/sweb/a1/q2/property#Preference&#45;&gt;http://www.w3.org/1999/02/22&#45;rdf&#45;syntax&#45;ns#Property -->
<g id="edge24" class="edge">
<title>http://www.iiitd.ac.in/sweb/a1/q2/property#Preference&#45;&gt;http://www.w3.org/1999/02/22&#45;rdf&#45;syntax&#45;ns#Property</title>
<path fill="none" stroke="#000000" d="M1038.3285,-115.4482C1023.0152,-124.7728 1010.2652,-137.0886 1020.5183,-149.0538 1029.907,-160.0103 1102.9075,-169.7954 1162.4797,-176.0752"/>
<polygon fill="#000000" stroke="#000000" points="1162.3618,-179.5816 1172.669,-177.1295 1163.0823,-172.6188 1162.3618,-179.5816"/>
<text text-anchor="middle" x="1025.0183" y="-137.8538" font-family="Times,serif" font-size="14.00" fill="#000000">a</text>
</g>
<!-- http://www.iiitd.ac.in/sweb/a1/q2/property#Preference&#45;&gt;http://www.w3.org/2000/01/rdf&#45;schema#Resource -->
<g id="edge4" class="edge">
<title>http://www.iiitd.ac.in/sweb/a1/q2/property#Preference&#45;&gt;http://www.w3.org/2000/01/rdf&#45;schema#Resource</title>
<path fill="none" stroke="#000000" d="M1057.292,-116.1162C1049.8937,-126.6175 1043.999,-139.9521 1052.5183,-149.0538 1073.2162,-171.1667 1294.4531,-163.3839 1324.5183,-167.0538 1331.829,-167.9462 1339.4429,-169.0413 1347.0163,-170.2377"/>
<polygon fill="#000000" stroke="#000000" points="1346.4858,-173.6974 1356.9202,-171.8603 1347.6177,-166.7895 1346.4858,-173.6974"/>
<text text-anchor="middle" x="1090.0183" y="-137.8538" font-family="Times,serif" font-size="14.00" fill="#000000">rdfs:range</text>
</g>
<!-- http://www.iiitd.ac.in/sweb/a1/q2/property#Preference&#45;&gt;http://www.w3.org/2000/01/rdf&#45;schema#Resource -->
<g id="edge30" class="edge">
<title>http://www.iiitd.ac.in/sweb/a1/q2/property#Preference&#45;&gt;http://www.w3.org/2000/01/rdf&#45;schema#Resource</title>
<path fill="none" stroke="#000000" d="M1098.0467,-115.8137C1119.6844,-128.5972 1148.6921,-145.0102 1161.5183,-149.0538 1231.0304,-170.9687 1252.3818,-156.6366 1324.5183,-167.0538 1331.3485,-168.0402 1338.4516,-169.154 1345.5432,-170.3247"/>
<polygon fill="#000000" stroke="#000000" points="1345.4487,-173.8582 1355.8919,-172.0723 1346.6144,-166.9559 1345.4487,-173.8582"/>
<text text-anchor="middle" x="1204.5183" y="-137.8538" font-family="Times,serif" font-size="14.00" fill="#000000">rdfs:domain</text>
</g>
<!-- fa778cddd413744e7b2b3cec570666a03b3&#45;&gt;fa778cddd413744e7b2b3cec570666a03b4 -->
<g id="edge17" class="edge">
<title>fa778cddd413744e7b2b3cec570666a03b3&#45;&gt;fa778cddd413744e7b2b3cec570666a03b4</title>
<path fill="none" stroke="#000000" d="M445.6405,-439.5051C436.4599,-445.3364 423.3523,-455.3962 417.5183,-468.1615 413.5747,-476.7904 412.8603,-487.1888 413.3174,-496.204"/>
<polygon fill="#000000" stroke="#000000" points="409.849,-496.6963 414.3176,-506.3026 416.8149,-496.0063 409.849,-496.6963"/>
<text text-anchor="middle" x="445.0183" y="-471.9615" font-family="Times,serif" font-size="14.00" fill="#000000">rdf:rest</text>
</g>
<!-- fa778cddd413744e7b2b3cec570666a03b3&#45;&gt;http://www.iiitd.ac.in/sweb/a1/q2/Papaya -->
<g id="edge25" class="edge">
<title>fa778cddd413744e7b2b3cec570666a03b3&#45;&gt;http://www.iiitd.ac.in/sweb/a1/q2/Papaya</title>
<path fill="none" stroke="#000000" d="M460.5348,-443.7423C463.9778,-450.5627 468.6127,-459.8716 472.5183,-468.1615 476.1112,-475.7876 479.8969,-484.1404 483.2959,-491.7663"/>
<polygon fill="#000000" stroke="#000000" points="480.1028,-493.1999 487.3507,-500.9277 486.5039,-490.3668 480.1028,-493.1999"/>
<text text-anchor="middle" x="507.5183" y="-471.9615" font-family="Times,serif" font-size="14.00" fill="#000000">rdf:first</text>
</g>
<!-- http://www.iiitd.ac.in/sweb/a1/q2/property#Likes -->
<g id="node26" class="node">
<title>http://www.iiitd.ac.in/sweb/a1/q2/property#Likes</title>
<ellipse fill="#e377c2" stroke="#e377c2" cx="1290.5183" cy="-99.7904" rx="86.0347" ry="16.0303"/>
<text text-anchor="middle" x="1290.5183" y="-96.0904" font-family="Times,serif" font-size="14.00" fill="#000000">property:Likes</text>
</g>
<!-- http://www.iiitd.ac.in/sweb/a1/q2/property#Likes&#45;&gt;http://www.w3.org/1999/02/22&#45;rdf&#45;syntax&#45;ns#Property -->
<g id="edge41" class="edge">
<title>http://www.iiitd.ac.in/sweb/a1/q2/property#Likes&#45;&gt;http://www.w3.org/1999/02/22&#45;rdf&#45;syntax&#45;ns#Property</title>
<path fill="none" stroke="#000000" d="M1273.6676,-115.831C1268.6281,-121.2628 1263.4137,-127.5974 1259.5183,-134.0538 1255.2663,-141.1012 1251.7729,-149.3136 1249.0325,-156.9897"/>
<polygon fill="#000000" stroke="#000000" points="1245.6618,-156.0358 1245.8632,-166.6288 1252.3116,-158.2223 1245.6618,-156.0358"/>
<text text-anchor="middle" x="1264.0183" y="-137.8538" font-family="Times,serif" font-size="14.00" fill="#000000">a</text>
</g>
<!-- http://www.iiitd.ac.in/sweb/a1/q2/property#Likes&#45;&gt;http://www.w3.org/2000/01/rdf&#45;schema#Resource -->
<g id="edge6" class="edge">
<title>http://www.iiitd.ac.in/sweb/a1/q2/property#Likes&#45;&gt;http://www.w3.org/2000/01/rdf&#45;schema#Resource</title>
<path fill="none" stroke="#000000" d="M1286.265,-116.061C1284.5424,-126.539 1284.3784,-139.8684 1291.5183,-149.0538 1298.4745,-158.003 1319.4075,-165.2419 1342.1405,-170.72"/>
<polygon fill="#000000" stroke="#000000" points="1341.4299,-174.1478 1351.958,-172.9598 1342.987,-167.3231 1341.4299,-174.1478"/>
<text text-anchor="middle" x="1334.5183" y="-137.8538" font-family="Times,serif" font-size="14.00" fill="#000000">rdfs:domain</text>
</g>
<!-- http://www.iiitd.ac.in/sweb/a1/q2/property#Likes&#45;&gt;http://www.w3.org/2000/01/rdf&#45;schema#Resource -->
<g id="edge29" class="edge">
<title>http://www.iiitd.ac.in/sweb/a1/q2/property#Likes&#45;&gt;http://www.w3.org/2000/01/rdf&#45;schema#Resource</title>
<path fill="none" stroke="#000000" d="M1338.5389,-113.4284C1351.9343,-118.5882 1365.9686,-125.374 1377.5183,-134.0538 1386.3259,-140.6729 1394.1475,-149.8381 1400.3706,-158.4696"/>
<polygon fill="#000000" stroke="#000000" points="1397.5226,-160.5058 1406.0383,-166.8093 1403.3122,-156.5712 1397.5226,-160.5058"/>
<text text-anchor="middle" x="1429.0183" y="-137.8538" font-family="Times,serif" font-size="14.00" fill="#000000">rdfs:range</text>
</g>
<!-- http://www.w3.org/2000/01/rdf&#45;schema#Literal -->
<g id="node27" class="node">
<title>http://www.w3.org/2000/01/rdf&#45;schema#Literal</title>
<ellipse fill="#e377c2" stroke="#e377c2" cx="1901.5183" cy="-99.7904" rx="69.0935" ry="16.0303"/>
<text text-anchor="middle" x="1901.5183" y="-96.0904" font-family="Times,serif" font-size="14.00" fill="#000000">rdfs:Literal</text>
</g>
<!-- http://www.iiitd.ac.in/sweb/a1/q2/Mary -->
<g id="node28" class="node">
<title>http://www.iiitd.ac.in/sweb/a1/q2/Mary</title>
<ellipse fill="#e377c2" stroke="#e377c2" cx="657.5183" cy="-16.2635" rx="38.3684" ry="16.0303"/>
<text text-anchor="middle" x="657.5183" y="-12.5635" font-family="Times,serif" font-size="14.00" fill="#000000">Mary</text>
</g>
<!-- http://www.iiitd.ac.in/sweb/a1/q2/Mary&#45;&gt;http://xmlns.com/foaf/0.1/Person -->
<g id="edge26" class="edge">
<title>http://www.iiitd.ac.in/sweb/a1/q2/Mary&#45;&gt;http://xmlns.com/foaf/0.1/Person</title>
<path fill="none" stroke="#000000" d="M695.3939,-18.8914C744.1132,-22.9642 825.2398,-32.3052 848.5183,-50.5269 855.8342,-56.2536 860.7836,-64.938 864.102,-73.4285"/>
<polygon fill="#000000" stroke="#000000" points="860.8404,-74.7141 867.2925,-83.1177 867.4892,-72.5247 860.8404,-74.7141"/>
<text text-anchor="middle" x="865.0183" y="-54.3269" font-family="Times,serif" font-size="14.00" fill="#000000">a</text>
</g>
<!-- http://www.iiitd.ac.in/sweb/a1/q2/Mary&#45;&gt;ub1bL43C34 -->
<g id="edge22" class="edge">
<title>http://www.iiitd.ac.in/sweb/a1/q2/Mary&#45;&gt;ub1bL43C34</title>
<path fill="none" stroke="#000000" d="M620.4393,-20.5625C524.2431,-32.5538 270.7352,-69.776 221.5183,-134.0538 196.4078,-166.8484 207.9044,-218.7589 217.0746,-246.981"/>
<polygon fill="#000000" stroke="#000000" points="213.8095,-248.248 220.3941,-256.5482 220.4227,-245.9534 213.8095,-248.248"/>
<text text-anchor="middle" x="330.0183" y="-137.8538" font-family="Times,serif" font-size="14.00" fill="#000000">property:FruitMealPreference</text>
</g>
<!-- http://www.iiitd.ac.in/sweb/a1/q2/Mary&#45;&gt;ub1bL37C25 -->
<g id="edge34" class="edge">
<title>http://www.iiitd.ac.in/sweb/a1/q2/Mary&#45;&gt;ub1bL37C25</title>
<path fill="none" stroke="#000000" d="M621.0786,-21.6941C603.6647,-26.305 584.3087,-34.8187 573.5183,-50.5269 567.9482,-58.6357 567.1806,-69.4005 568.0249,-78.7987"/>
<polygon fill="#000000" stroke="#000000" points="564.6063,-79.6 569.5653,-88.9626 571.5273,-78.551 564.6063,-79.6"/>
<text text-anchor="middle" x="646.5183" y="-54.3269" font-family="Times,serif" font-size="14.00" fill="#000000">property:Preference</text>
</g>
<!-- http://www.iiitd.ac.in/sweb/a1/q2/Mary&#45;&gt;ub1bL31C20 -->
<g id="edge39" class="edge">
<title>http://www.iiitd.ac.in/sweb/a1/q2/Mary&#45;&gt;ub1bL31C20</title>
<path fill="none" stroke="#000000" d="M683.1397,-28.5536C694.6708,-34.5488 708.2032,-42.2487 719.5183,-50.5269 733.1398,-60.4924 746.9335,-73.7375 756.8884,-83.9839"/>
<polygon fill="#000000" stroke="#000000" points="754.5466,-86.6005 763.9724,-91.4385 759.6209,-81.7785 754.5466,-86.6005"/>
<text text-anchor="middle" x="791.5183" y="-54.3269" font-family="Times,serif" font-size="14.00" fill="#000000">property:Likes</text>
</g>
<!-- fa778cddd413744e7b2b3cec570666a03b1&#45;&gt;http://www.iiitd.ac.in/sweb/a1/q2/Orange -->
<g id="edge3" class="edge">
<title>fa778cddd413744e7b2b3cec570666a03b1&#45;&gt;http://www.iiitd.ac.in/sweb/a1/q2/Orange</title>
<path fill="none" stroke="#000000" d="M405.5834,-272.4255C396.3605,-278.2378 383.2224,-288.2839 377.5183,-301.1076 374.447,-308.0125 373.4958,-316.0197 373.5671,-323.5457"/>
<polygon fill="#000000" stroke="#000000" points="370.0861,-323.9506 374.2343,-333.6995 377.071,-323.4915 370.0861,-323.9506"/>
<text text-anchor="middle" x="405.5183" y="-304.9076" font-family="Times,serif" font-size="14.00" fill="#000000">rdf:first</text>
</g>
<!-- fa778cddd413744e7b2b3cec570666a03b1&#45;&gt;fa778cddd413744e7b2b3cec570666a03b2 -->
<g id="edge16" class="edge">
<title>fa778cddd413744e7b2b3cec570666a03b1&#45;&gt;fa778cddd413744e7b2b3cec570666a03b2</title>
<path fill="none" stroke="#000000" d="M420.885,-276.6552C424.5552,-283.4607 429.4694,-292.7655 433.5183,-301.1076 438.2134,-310.7812 443.1215,-321.6852 447.1076,-330.7709"/>
<polygon fill="#000000" stroke="#000000" points="443.9623,-332.3151 451.1556,-340.0938 450.3832,-329.5272 443.9623,-332.3151"/>
<text text-anchor="middle" x="468.0183" y="-304.9076" font-family="Times,serif" font-size="14.00" fill="#000000">rdf:rest</text>
</g>
<!-- http://www.iiitd.ac.in/sweb/a1/q2/property#FruitMealPreference -->
<g id="node30" class="node">
<title>http://www.iiitd.ac.in/sweb/a1/q2/property#FruitMealPreference</title>
<ellipse fill="#d3d3d3" stroke="#000000" cx="1728.5183" cy="-16.2635" rx="340.2368" ry="16.0303"/>
<text text-anchor="middle" x="1728.5183" y="-12.5635" font-family="Times,serif" font-size="14.00" fill="#000000">http://www.iiitd.ac.in/sweb/a1/q2/property#FruitMealPreference</text>
</g>
<!-- http://www.iiitd.ac.in/sweb/a1/q2/property#FruitMealPreference&#45;&gt;http://www.w3.org/2000/01/rdf&#45;schema#Resource -->
<g id="edge18" class="edge">
<title>http://www.iiitd.ac.in/sweb/a1/q2/property#FruitMealPreference&#45;&gt;http://www.w3.org/2000/01/rdf&#45;schema#Resource</title>
<path fill="none" stroke="#000000" d="M1730.3794,-32.624C1732.597,-60.97 1732.5154,-119.0498 1699.5183,-149.0538 1685.1445,-162.1238 1582.2394,-172.0171 1504.3989,-177.7342"/>
<polygon fill="#000000" stroke="#000000" points="1503.7983,-174.2683 1494.0761,-178.4789 1504.3021,-181.2502 1503.7983,-174.2683"/>
<text text-anchor="middle" x="1771.5183" y="-96.0904" font-family="Times,serif" font-size="14.00" fill="#000000">rdfs:domain</text>
</g>
<!-- http://www.iiitd.ac.in/sweb/a1/q2/property#FruitMealPreference&#45;&gt;http://www.iiitd.ac.in/sweb/a1/q2/property#Preference -->
<g id="edge38" class="edge">
<title>http://www.iiitd.ac.in/sweb/a1/q2/property#FruitMealPreference&#45;&gt;http://www.iiitd.ac.in/sweb/a1/q2/property#Preference</title>
<path fill="none" stroke="#000000" d="M1606.7755,-31.4557C1498.7295,-44.9796 1336.5899,-65.3743 1195.5183,-83.5269 1185.8277,-84.7739 1175.7125,-86.085 1165.6214,-87.3991"/>
<polygon fill="#000000" stroke="#000000" points="1165.0182,-83.948 1155.5549,-88.712 1165.9236,-90.8893 1165.0182,-83.948"/>
<text text-anchor="middle" x="1509.5183" y="-54.3269" font-family="Times,serif" font-size="14.00" fill="#000000">rdf:subPropertyOf</text>
</g>
<!-- http://www.iiitd.ac.in/sweb/a1/q2/property#FruitMealPreference&#45;&gt;http://www.w3.org/2000/01/rdf&#45;schema#Literal -->
<g id="edge40" class="edge">
<title>http://www.iiitd.ac.in/sweb/a1/q2/property#FruitMealPreference&#45;&gt;http://www.w3.org/2000/01/rdf&#45;schema#Literal</title>
<path fill="none" stroke="#000000" d="M1762.2851,-32.5666C1790.7673,-46.3182 1831.5844,-66.0253 1861.6644,-80.5483"/>
<polygon fill="#000000" stroke="#000000" points="1860.4969,-83.8712 1871.0241,-85.0673 1863.5405,-77.5675 1860.4969,-83.8712"/>
<text text-anchor="middle" x="1867.0183" y="-54.3269" font-family="Times,serif" font-size="14.00" fill="#000000">rdfs:range</text>
</g>
</g>
</svg>
