<?xml version="1.0" encoding="UTF-8" standalone="no"?>
<!DOCTYPE svg PUBLIC "-//W3C//DTD SVG 1.1//EN"
 "http://www.w3.org/Graphics/SVG/1.1/DTD/svg11.dtd">
<!-- Generated by graphviz version 2.40.1 (20161225.0304)
 -->
<!-- Title: G Pages: 1 -->
<svg width="2284pt" height="658pt"
 viewBox="0.00 0.00 2283.54 657.58" xmlns="http://www.w3.org/2000/svg" xmlns:xlink="http://www.w3.org/1999/xlink">
<g id="graph0" class="graph" transform="scale(1 1) rotate(0) translate(4 653.5807)">
<title>G</title>
<polygon fill="#ffffff" stroke="transparent" points="-4,4 -4,-653.5807 2279.5448,-653.5807 2279.5448,4 -4,4"/>
<!-- http://xmlns.com/foaf/0.1/Person -->
<g id="node1" class="node">
<title>http://xmlns.com/foaf/0.1/Person</title>
<ellipse fill="#1f77b4" stroke="#1f77b4" cx="292.4264" cy="-99.7904" rx="68.6788" ry="16.0303"/>
<text text-anchor="middle" x="292.4264" y="-96.0904" font-family="Times,serif" font-size="14.00" fill="#000000">foaf:Person</text>
</g>
<!-- http://www.w3.org/2000/01/rdf&#45;schema#Class -->
<g id="node2" class="node">
<title>http://www.w3.org/2000/01/rdf&#45;schema#Class</title>
<ellipse fill="#1f77b4" stroke="#1f77b4" cx="491.4264" cy="-360.0807" rx="62.8651" ry="16.0303"/>
<text text-anchor="middle" x="491.4264" y="-356.3807" font-family="Times,serif" font-size="14.00" fill="#000000">rdfs:Class</text>
</g>
<!-- http://www.w3.org/1999/02/22&#45;rdf&#45;syntax&#45;ns#Bag -->
<g id="node3" class="node">
<title>http://www.w3.org/1999/02/22&#45;rdf&#45;syntax&#45;ns#Bag</title>
<ellipse fill="#1f77b4" stroke="#1f77b4" cx="137.4264" cy="-186.5538" rx="49.4949" ry="16.0303"/>
<text text-anchor="middle" x="137.4264" y="-182.8538" font-family="Times,serif" font-size="14.00" fill="#000000">rdf:Bag</text>
</g>
<!-- http://www.w3.org/1999/02/22&#45;rdf&#45;syntax&#45;ns#Alt -->
<g id="node4" class="node">
<title>http://www.w3.org/1999/02/22&#45;rdf&#45;syntax&#45;ns#Alt</title>
<ellipse fill="#1f77b4" stroke="#1f77b4" cx="889.4264" cy="-186.5538" rx="44.5955" ry="16.0303"/>
<text text-anchor="middle" x="889.4264" y="-182.8538" font-family="Times,serif" font-size="14.00" fill="#000000">rdf:Alt</text>
</g>
<!-- http://www.w3.org/1999/02/22&#45;rdf&#45;syntax&#45;ns#Property -->
<g id="node5" class="node">
<title>http://www.w3.org/1999/02/22&#45;rdf&#45;syntax&#45;ns#Property</title>
<ellipse fill="#1f77b4" stroke="#1f77b4" cx="1443.4264" cy="-186.5538" rx="74.4932" ry="16.0303"/>
<text text-anchor="middle" x="1443.4264" y="-182.8538" font-family="Times,serif" font-size="14.00" fill="#000000">rdf:Property</text>
</g>
<!-- http://www.w3.org/1999/02/22&#45;rdf&#45;syntax&#45;ns#Seq -->
<g id="node6" class="node">
<title>http://www.w3.org/1999/02/22&#45;rdf&#45;syntax&#45;ns#Seq</title>
<ellipse fill="#1f77b4" stroke="#1f77b4" cx="778.4264" cy="-186.5538" rx="48.5816" ry="16.0303"/>
<text text-anchor="middle" x="778.4264" y="-182.8538" font-family="Times,serif" font-size="14.00" fill="#000000">rdf:Seq</text>
</g>
<!-- http://www.w3.org/2000/01/rdf&#45;schema#Literal -->
<g id="node7" class="node">
<title>http://www.w3.org/2000/01/rdf&#45;schema#Literal</title>
<ellipse fill="#e377c2" stroke="#e377c2" cx="2108.4264" cy="-99.7904" rx="69.0935" ry="16.0303"/>
<text text-anchor="middle" x="2108.4264" y="-96.0904" font-family="Times,serif" font-size="14.00" fill="#000000">rdfs:Literal</text>
</g>
<!-- ub1bL31C20 -->
<g id="node8" class="node">
<title>ub1bL31C20</title>
<ellipse fill="#e377c2" stroke="#e377c2" cx="390.4264" cy="-99.7904" rx="11" ry="11"/>
</g>
<!-- ub1bL31C20&#45;&gt;http://www.w3.org/1999/02/22&#45;rdf&#45;syntax&#45;ns#Bag -->
<g id="edge25" class="edge">
<title>ub1bL31C20&#45;&gt;http://www.w3.org/1999/02/22&#45;rdf&#45;syntax&#45;ns#Bag</title>
<path fill="none" stroke="#000000" d="M382.4494,-107.6712C378.9995,-110.6901 374.7624,-113.9183 370.4264,-116.0538 339.2861,-131.3908 327.8094,-124.54 294.4264,-134.0538 255.5189,-145.1421 211.9298,-159.9098 180.5715,-170.9579"/>
<polygon fill="#000000" stroke="#000000" points="179.0987,-167.7665 170.8414,-174.4049 181.4362,-174.3647 179.0987,-167.7665"/>
<text text-anchor="middle" x="298.9264" y="-137.8538" font-family="Times,serif" font-size="14.00" fill="#000000">a</text>
</g>
<!-- http://www.iiitd.ac.in/sweb/a1/q2/AppleJuice -->
<g id="node12" class="node">
<title>http://www.iiitd.ac.in/sweb/a1/q2/AppleJuice</title>
<ellipse fill="#e377c2" stroke="#e377c2" cx="645.4264" cy="-186.5538" rx="66.4361" ry="16.0303"/>
<text text-anchor="middle" x="645.4264" y="-182.8538" font-family="Times,serif" font-size="14.00" fill="#000000">AppleJuice</text>
</g>
<!-- ub1bL31C20&#45;&gt;http://www.iiitd.ac.in/sweb/a1/q2/AppleJuice -->
<g id="edge2" class="edge">
<title>ub1bL31C20&#45;&gt;http://www.iiitd.ac.in/sweb/a1/q2/AppleJuice</title>
<path fill="none" stroke="#000000" d="M401.2407,-102.1697C420.2794,-106.6335 460.6758,-117.3475 491.4264,-134.0538 500.8802,-139.1899 500.8323,-144.1849 510.4264,-149.0538 517.8299,-152.811 555.7314,-163.2259 589.4964,-172.129"/>
<polygon fill="#000000" stroke="#000000" points="588.7802,-175.5595 599.3412,-174.7134 590.5577,-168.7889 588.7802,-175.5595"/>
<text text-anchor="middle" x="531.9264" y="-137.8538" font-family="Times,serif" font-size="14.00" fill="#000000">rdf:_2</text>
</g>
<!-- http://www.iiitd.ac.in/sweb/a1/q2/OrangeJuice -->
<g id="node14" class="node">
<title>http://www.iiitd.ac.in/sweb/a1/q2/OrangeJuice</title>
<ellipse fill="#e377c2" stroke="#e377c2" cx="486.4264" cy="-186.5538" rx="74.9067" ry="16.0303"/>
<text text-anchor="middle" x="486.4264" y="-182.8538" font-family="Times,serif" font-size="14.00" fill="#000000">OrangeJuice</text>
</g>
<!-- ub1bL31C20&#45;&gt;http://www.iiitd.ac.in/sweb/a1/q2/OrangeJuice -->
<g id="edge33" class="edge">
<title>ub1bL31C20&#45;&gt;http://www.iiitd.ac.in/sweb/a1/q2/OrangeJuice</title>
<path fill="none" stroke="#000000" d="M385.0898,-109.4114C379.977,-120.0643 374.1587,-137.284 382.4264,-149.0538 388.2098,-157.2871 406.6998,-165.0664 426.5184,-171.3826"/>
<polygon fill="#000000" stroke="#000000" points="425.7186,-174.7976 436.3045,-174.3613 427.757,-168.1009 425.7186,-174.7976"/>
<text text-anchor="middle" x="403.9264" y="-137.8538" font-family="Times,serif" font-size="14.00" fill="#000000">rdf:_1</text>
</g>
<!-- http://www.iiitd.ac.in/sweb/a1/q2/MixedFruitJuice -->
<g id="node24" class="node">
<title>http://www.iiitd.ac.in/sweb/a1/q2/MixedFruitJuice</title>
<ellipse fill="#e377c2" stroke="#e377c2" cx="299.4264" cy="-186.5538" rx="94.0904" ry="16.0303"/>
<text text-anchor="middle" x="299.4264" y="-182.8538" font-family="Times,serif" font-size="14.00" fill="#000000">MixedFruitJuice</text>
</g>
<!-- ub1bL31C20&#45;&gt;http://www.iiitd.ac.in/sweb/a1/q2/MixedFruitJuice -->
<g id="edge37" class="edge">
<title>ub1bL31C20&#45;&gt;http://www.iiitd.ac.in/sweb/a1/q2/MixedFruitJuice</title>
<path fill="none" stroke="#000000" d="M382.3496,-107.4795C378.8844,-110.469 374.6629,-113.7271 370.4264,-116.0538 348.2523,-128.2321 334.2379,-116.0886 316.4264,-134.0538 309.5652,-140.9743 305.4725,-150.6838 303.0315,-159.8734"/>
<polygon fill="#000000" stroke="#000000" points="299.5662,-159.3432 300.9178,-169.8514 306.4143,-160.7939 299.5662,-159.3432"/>
<text text-anchor="middle" x="337.9264" y="-137.8538" font-family="Times,serif" font-size="14.00" fill="#000000">rdf:_3</text>
</g>
<!-- http://www.iiitd.ac.in/sweb/a1/q2/property#Preference -->
<g id="node9" class="node">
<title>http://www.iiitd.ac.in/sweb/a1/q2/property#Preference</title>
<ellipse fill="#e377c2" stroke="#e377c2" cx="1760.4264" cy="-99.7904" rx="114.6026" ry="16.0303"/>
<text text-anchor="middle" x="1760.4264" y="-96.0904" font-family="Times,serif" font-size="14.00" fill="#000000">property:Preference</text>
</g>
<!-- http://www.iiitd.ac.in/sweb/a1/q2/property#Preference&#45;&gt;http://www.w3.org/1999/02/22&#45;rdf&#45;syntax&#45;ns#Property -->
<g id="edge23" class="edge">
<title>http://www.iiitd.ac.in/sweb/a1/q2/property#Preference&#45;&gt;http://www.w3.org/1999/02/22&#45;rdf&#45;syntax&#45;ns#Property</title>
<path fill="none" stroke="#000000" d="M1734.8248,-115.7224C1712.2537,-129.7114 1682.4804,-148.0017 1679.4264,-149.0538 1614.6911,-171.355 1593.8623,-155.2048 1526.4264,-167.0538 1518.4457,-168.4561 1510.0828,-170.1503 1501.8662,-171.9475"/>
<polygon fill="#000000" stroke="#000000" points="1500.9397,-168.5684 1491.9518,-174.178 1502.4762,-175.3977 1500.9397,-168.5684"/>
<text text-anchor="middle" x="1707.9264" y="-137.8538" font-family="Times,serif" font-size="14.00" fill="#000000">a</text>
</g>
<!-- http://www.w3.org/2000/01/rdf&#45;schema#Resource -->
<g id="node17" class="node">
<title>http://www.w3.org/2000/01/rdf&#45;schema#Resource</title>
<ellipse fill="#e377c2" stroke="#e377c2" cx="1617.4264" cy="-186.5538" rx="82.0488" ry="16.0303"/>
<text text-anchor="middle" x="1617.4264" y="-182.8538" font-family="Times,serif" font-size="14.00" fill="#000000">rdfs:Resource</text>
</g>
<!-- http://www.iiitd.ac.in/sweb/a1/q2/property#Preference&#45;&gt;http://www.w3.org/2000/01/rdf&#45;schema#Resource -->
<g id="edge6" class="edge">
<title>http://www.iiitd.ac.in/sweb/a1/q2/property#Preference&#45;&gt;http://www.w3.org/2000/01/rdf&#45;schema#Resource</title>
<path fill="none" stroke="#000000" d="M1794.393,-115.4351C1809.7654,-124.6579 1822.4845,-136.8772 1812.4264,-149.0538 1798.5212,-165.8879 1750.6346,-175.244 1705.7993,-180.4009"/>
<polygon fill="#000000" stroke="#000000" points="1705.2577,-176.9391 1695.695,-181.5003 1706.0149,-183.898 1705.2577,-176.9391"/>
<text text-anchor="middle" x="1859.4264" y="-137.8538" font-family="Times,serif" font-size="14.00" fill="#000000">rdfs:domain</text>
</g>
<!-- http://www.iiitd.ac.in/sweb/a1/q2/property#Preference&#45;&gt;http://www.w3.org/2000/01/rdf&#45;schema#Resource -->
<g id="edge38" class="edge">
<title>http://www.iiitd.ac.in/sweb/a1/q2/property#Preference&#45;&gt;http://www.w3.org/2000/01/rdf&#45;schema#Resource</title>
<path fill="none" stroke="#000000" d="M1748.2716,-116.2423C1739.7705,-126.7969 1727.6122,-140.1434 1714.4264,-149.0538 1702.1502,-157.3496 1687.7771,-164.1802 1673.9128,-169.6325"/>
<polygon fill="#000000" stroke="#000000" points="1672.563,-166.4006 1664.4278,-173.1881 1675.0201,-172.9552 1672.563,-166.4006"/>
<text text-anchor="middle" x="1768.9264" y="-137.8538" font-family="Times,serif" font-size="14.00" fill="#000000">rdfs:range</text>
</g>
<!-- http://www.w3.org/1999/02/22&#45;rdf&#45;syntax&#45;ns#nil -->
<g id="node10" class="node">
<title>http://www.w3.org/1999/02/22&#45;rdf&#45;syntax&#45;ns#nil</title>
<ellipse fill="#e377c2" stroke="#e377c2" cx="42.4264" cy="-630.0807" rx="42.3529" ry="16.0303"/>
<text text-anchor="middle" x="42.4264" y="-626.3807" font-family="Times,serif" font-size="14.00" fill="#000000">rdf:nil</text>
</g>
<!-- http://www.iiitd.ac.in/sweb/a1/q2/Mary -->
<g id="node11" class="node">
<title>http://www.iiitd.ac.in/sweb/a1/q2/Mary</title>
<ellipse fill="#e377c2" stroke="#e377c2" cx="489.4264" cy="-16.2635" rx="38.3684" ry="16.0303"/>
<text text-anchor="middle" x="489.4264" y="-12.5635" font-family="Times,serif" font-size="14.00" fill="#000000">Mary</text>
</g>
<!-- http://www.iiitd.ac.in/sweb/a1/q2/Mary&#45;&gt;http://xmlns.com/foaf/0.1/Person -->
<g id="edge15" class="edge">
<title>http://www.iiitd.ac.in/sweb/a1/q2/Mary&#45;&gt;http://xmlns.com/foaf/0.1/Person</title>
<path fill="none" stroke="#000000" d="M458.4916,-26.1513C439.2634,-32.5521 414.153,-41.3757 392.4264,-50.5269 371.2177,-59.4599 348.1362,-70.7231 329.4976,-80.2244"/>
<polygon fill="#000000" stroke="#000000" points="327.755,-77.1847 320.4615,-84.8695 330.9554,-83.4103 327.755,-77.1847"/>
<text text-anchor="middle" x="396.9264" y="-54.3269" font-family="Times,serif" font-size="14.00" fill="#000000">a</text>
</g>
<!-- http://www.iiitd.ac.in/sweb/a1/q2/Mary&#45;&gt;ub1bL31C20 -->
<g id="edge26" class="edge">
<title>http://www.iiitd.ac.in/sweb/a1/q2/Mary&#45;&gt;ub1bL31C20</title>
<path fill="none" stroke="#000000" d="M458.35,-25.7378C444.2654,-31.2289 428.1754,-39.3151 416.4264,-50.5269 408.0144,-58.5543 401.7688,-69.9081 397.5103,-79.693"/>
<polygon fill="#000000" stroke="#000000" points="394.2064,-78.5304 393.7841,-89.1168 400.716,-81.1043 394.2064,-78.5304"/>
<text text-anchor="middle" x="469.4264" y="-54.3269" font-family="Times,serif" font-size="14.00" fill="#000000">property:Likes</text>
</g>
<!-- ub1bL43C34 -->
<g id="node15" class="node">
<title>ub1bL43C34</title>
<ellipse fill="#e377c2" stroke="#e377c2" cx="987.4264" cy="-99.7904" rx="11" ry="11"/>
</g>
<!-- http://www.iiitd.ac.in/sweb/a1/q2/Mary&#45;&gt;ub1bL43C34 -->
<g id="edge12" class="edge">
<title>http://www.iiitd.ac.in/sweb/a1/q2/Mary&#45;&gt;ub1bL43C34</title>
<path fill="none" stroke="#000000" d="M525.2413,-22.2705C622.5971,-38.5995 889.9166,-83.4356 966.6071,-96.2985"/>
<polygon fill="#000000" stroke="#000000" points="966.0547,-99.7546 976.4959,-97.9571 967.2127,-92.851 966.0547,-99.7546"/>
<text text-anchor="middle" x="891.9264" y="-54.3269" font-family="Times,serif" font-size="14.00" fill="#000000">property:FruitMealPreference</text>
</g>
<!-- ub1bL37C25 -->
<g id="node23" class="node">
<title>ub1bL37C25</title>
<ellipse fill="#e377c2" stroke="#e377c2" cx="579.4264" cy="-99.7904" rx="11" ry="11"/>
</g>
<!-- http://www.iiitd.ac.in/sweb/a1/q2/Mary&#45;&gt;ub1bL37C25 -->
<g id="edge40" class="edge">
<title>http://www.iiitd.ac.in/sweb/a1/q2/Mary&#45;&gt;ub1bL37C25</title>
<path fill="none" stroke="#000000" d="M505.5166,-31.1964C521.8778,-46.3808 547.0809,-69.7713 563.414,-84.9297"/>
<polygon fill="#000000" stroke="#000000" points="561.3422,-87.7819 571.0528,-92.0191 566.104,-82.651 561.3422,-87.7819"/>
<text text-anchor="middle" x="616.4264" y="-54.3269" font-family="Times,serif" font-size="14.00" fill="#000000">property:Preference</text>
</g>
<!-- http://www.iiitd.ac.in/sweb/a1/q2/FruitJuice -->
<g id="node13" class="node">
<title>http://www.iiitd.ac.in/sweb/a1/q2/FruitJuice</title>
<ellipse fill="#e377c2" stroke="#e377c2" cx="491.4264" cy="-273.3173" rx="62.8651" ry="16.0303"/>
<text text-anchor="middle" x="491.4264" y="-269.6173" font-family="Times,serif" font-size="14.00" fill="#000000">FruitJuice</text>
</g>
<!-- http://www.iiitd.ac.in/sweb/a1/q2/AppleJuice&#45;&gt;http://www.iiitd.ac.in/sweb/a1/q2/FruitJuice -->
<g id="edge22" class="edge">
<title>http://www.iiitd.ac.in/sweb/a1/q2/AppleJuice&#45;&gt;http://www.iiitd.ac.in/sweb/a1/q2/FruitJuice</title>
<path fill="none" stroke="#000000" d="M637.6112,-203.0343C631.2807,-214.6967 621.3052,-229.8423 608.4264,-239.0538 593.102,-250.0145 574.2886,-257.4954 556.2654,-262.5913"/>
<polygon fill="#000000" stroke="#000000" points="555.1486,-259.2656 546.3609,-265.184 556.9213,-266.0375 555.1486,-259.2656"/>
<text text-anchor="middle" x="681.9264" y="-227.8538" font-family="Times,serif" font-size="14.00" fill="#000000">rdfs:subClassOf</text>
</g>
<!-- http://www.iiitd.ac.in/sweb/a1/q2/FruitJuice&#45;&gt;http://www.w3.org/2000/01/rdf&#45;schema#Class -->
<g id="edge24" class="edge">
<title>http://www.iiitd.ac.in/sweb/a1/q2/FruitJuice&#45;&gt;http://www.w3.org/2000/01/rdf&#45;schema#Class</title>
<path fill="none" stroke="#000000" d="M491.4264,-289.6368C491.4264,-301.9197 491.4264,-319.0216 491.4264,-333.2988"/>
<polygon fill="#000000" stroke="#000000" points="487.9265,-333.5393 491.4264,-343.5394 494.9265,-333.5394 487.9265,-333.5393"/>
<text text-anchor="middle" x="495.9264" y="-311.3807" font-family="Times,serif" font-size="14.00" fill="#000000">a</text>
</g>
<!-- http://www.iiitd.ac.in/sweb/a1/q2/OrangeJuice&#45;&gt;http://www.iiitd.ac.in/sweb/a1/q2/FruitJuice -->
<g id="edge5" class="edge">
<title>http://www.iiitd.ac.in/sweb/a1/q2/OrangeJuice&#45;&gt;http://www.iiitd.ac.in/sweb/a1/q2/FruitJuice</title>
<path fill="none" stroke="#000000" d="M487.3669,-202.8734C488.0747,-215.1562 489.0603,-232.2581 489.883,-246.5353"/>
<polygon fill="#000000" stroke="#000000" points="486.4035,-246.9939 490.4732,-256.7759 493.3919,-246.5911 486.4035,-246.9939"/>
<text text-anchor="middle" x="546.9264" y="-227.8538" font-family="Times,serif" font-size="14.00" fill="#000000">rdfs:subClassOf</text>
</g>
<!-- ub1bL43C34&#45;&gt;http://www.w3.org/1999/02/22&#45;rdf&#45;syntax&#45;ns#Alt -->
<g id="edge32" class="edge">
<title>ub1bL43C34&#45;&gt;http://www.w3.org/1999/02/22&#45;rdf&#45;syntax&#45;ns#Alt</title>
<path fill="none" stroke="#000000" d="M979.071,-107.1878C964.8698,-119.7607 935.4991,-145.7638 914.2381,-164.587"/>
<polygon fill="#000000" stroke="#000000" points="911.7024,-162.1573 906.5352,-171.4067 916.3426,-167.3984 911.7024,-162.1573"/>
<text text-anchor="middle" x="951.9264" y="-137.8538" font-family="Times,serif" font-size="14.00" fill="#000000">a</text>
</g>
<!-- c7fca8fdef334c98b0ab831d5357b811 -->
<g id="node27" class="node">
<title>c7fca8fdef334c98b0ab831d5357b811</title>
<polygon fill="#ff7f0e" stroke="#ff7f0e" points="1022.4264,-206.0538 952.4264,-206.0538 952.4264,-167.0538 1022.4264,-167.0538 1022.4264,-206.0538"/>
<text text-anchor="middle" x="987.4264" y="-174.8538" font-family="Times,serif" font-size="14.00" fill="#000000">Orange</text>
</g>
<!-- ub1bL43C34&#45;&gt;c7fca8fdef334c98b0ab831d5357b811 -->
<g id="edge41" class="edge">
<title>ub1bL43C34&#45;&gt;c7fca8fdef334c98b0ab831d5357b811</title>
<path fill="none" stroke="#000000" d="M987.4264,-111.1332C987.4264,-122.6282 987.4264,-140.904 987.4264,-156.5861"/>
<polygon fill="#000000" stroke="#000000" points="983.9265,-156.9133 987.4264,-166.9133 990.9265,-156.9133 983.9265,-156.9133"/>
<text text-anchor="middle" x="1008.9264" y="-137.8538" font-family="Times,serif" font-size="14.00" fill="#000000">rdf:_2</text>
</g>
<!-- f0c32aa96eaf4b3e84eeaa7afebbd05c -->
<g id="node29" class="node">
<title>f0c32aa96eaf4b3e84eeaa7afebbd05c</title>
<polygon fill="#ff7f0e" stroke="#ff7f0e" points="1098.4264,-206.0538 1040.4264,-206.0538 1040.4264,-167.0538 1098.4264,-167.0538 1098.4264,-206.0538"/>
<text text-anchor="middle" x="1069.4264" y="-174.8538" font-family="Times,serif" font-size="14.00" fill="#000000">Apple</text>
</g>
<!-- ub1bL43C34&#45;&gt;f0c32aa96eaf4b3e84eeaa7afebbd05c -->
<g id="edge4" class="edge">
<title>ub1bL43C34&#45;&gt;f0c32aa96eaf4b3e84eeaa7afebbd05c</title>
<path fill="none" stroke="#000000" d="M997.2038,-105.481C1007.2905,-111.6621 1023.1042,-122.2467 1034.4264,-134.0538 1041.3306,-141.2538 1047.7516,-149.9744 1053.1595,-158.2228"/>
<polygon fill="#000000" stroke="#000000" points="1050.3226,-160.2866 1058.605,-166.8936 1056.2505,-156.5637 1050.3226,-160.2866"/>
<text text-anchor="middle" x="1068.9264" y="-137.8538" font-family="Times,serif" font-size="14.00" fill="#000000">rdf:_3</text>
</g>
<!-- b0224de036524a748b9eb7dbffd208f1 -->
<g id="node30" class="node">
<title>b0224de036524a748b9eb7dbffd208f1</title>
<polygon fill="#ff7f0e" stroke="#ff7f0e" points="1203.9264,-206.0538 1116.9264,-206.0538 1116.9264,-167.0538 1203.9264,-167.0538 1203.9264,-206.0538"/>
<text text-anchor="middle" x="1160.4264" y="-174.8538" font-family="Times,serif" font-size="14.00" fill="#000000">Pineapple</text>
</g>
<!-- ub1bL43C34&#45;&gt;b0224de036524a748b9eb7dbffd208f1 -->
<g id="edge14" class="edge">
<title>ub1bL43C34&#45;&gt;b0224de036524a748b9eb7dbffd208f1</title>
<path fill="none" stroke="#000000" d="M998.2634,-101.8984C1018.1798,-106.0616 1061.5709,-116.4897 1094.4264,-134.0538 1107.7259,-141.1635 1121.0075,-151.0509 1132.1328,-160.3298"/>
<polygon fill="#000000" stroke="#000000" points="1129.9545,-163.0726 1139.822,-166.9304 1134.5139,-157.7611 1129.9545,-163.0726"/>
<text text-anchor="middle" x="1139.9264" y="-137.8538" font-family="Times,serif" font-size="14.00" fill="#000000">rdf:_1</text>
</g>
<!-- f69a7a254c1724a9d9376fafa8fdaa450b3 -->
<g id="node16" class="node">
<title>f69a7a254c1724a9d9376fafa8fdaa450b3</title>
<ellipse fill="#e377c2" stroke="#e377c2" cx="128.4264" cy="-450.0807" rx="11" ry="11"/>
</g>
<!-- f69a7a254c1724a9d9376fafa8fdaa450b4 -->
<g id="node19" class="node">
<title>f69a7a254c1724a9d9376fafa8fdaa450b4</title>
<ellipse fill="#e377c2" stroke="#e377c2" cx="89.4264" cy="-540.0807" rx="11" ry="11"/>
</g>
<!-- f69a7a254c1724a9d9376fafa8fdaa450b3&#45;&gt;f69a7a254c1724a9d9376fafa8fdaa450b4 -->
<g id="edge13" class="edge">
<title>f69a7a254c1724a9d9376fafa8fdaa450b3&#45;&gt;f69a7a254c1724a9d9376fafa8fdaa450b4</title>
<path fill="none" stroke="#000000" d="M118.8712,-456.197C109.6581,-462.712 96.2769,-473.9536 90.4264,-487.5807 86.2456,-497.3188 85.6556,-509.0387 86.2573,-518.9324"/>
<polygon fill="#000000" stroke="#000000" points="82.8013,-519.5386 87.3152,-529.1238 89.7639,-518.8158 82.8013,-519.5386"/>
<text text-anchor="middle" x="117.9264" y="-491.3807" font-family="Times,serif" font-size="14.00" fill="#000000">rdf:rest</text>
</g>
<!-- b96381869c8c4dc9a7bd7bc3597c78a0 -->
<g id="node31" class="node">
<title>b96381869c8c4dc9a7bd7bc3597c78a0</title>
<polygon fill="#ff7f0e" stroke="#ff7f0e" points="201.4264,-559.5807 133.4264,-559.5807 133.4264,-520.5807 201.4264,-520.5807 201.4264,-559.5807"/>
<text text-anchor="middle" x="167.4264" y="-528.3807" font-family="Times,serif" font-size="14.00" fill="#000000">Papaya</text>
</g>
<!-- f69a7a254c1724a9d9376fafa8fdaa450b3&#45;&gt;b96381869c8c4dc9a7bd7bc3597c78a0 -->
<g id="edge20" class="edge">
<title>f69a7a254c1724a9d9376fafa8fdaa450b3&#45;&gt;b96381869c8c4dc9a7bd7bc3597c78a0</title>
<path fill="none" stroke="#000000" d="M133.1237,-460.2317C136.5823,-467.7563 141.369,-478.2765 145.4264,-487.5807 148.7595,-495.224 152.2853,-503.532 155.5148,-511.2363"/>
<polygon fill="#000000" stroke="#000000" points="152.3306,-512.6943 159.4101,-520.5767 158.7913,-510 152.3306,-512.6943"/>
<text text-anchor="middle" x="180.4264" y="-491.3807" font-family="Times,serif" font-size="14.00" fill="#000000">rdf:first</text>
</g>
<!-- f69a7a254c1724a9d9376fafa8fdaa450b2 -->
<g id="node18" class="node">
<title>f69a7a254c1724a9d9376fafa8fdaa450b2</title>
<ellipse fill="#e377c2" stroke="#e377c2" cx="167.4264" cy="-360.0807" rx="11" ry="11"/>
</g>
<!-- f69a7a254c1724a9d9376fafa8fdaa450b2&#45;&gt;f69a7a254c1724a9d9376fafa8fdaa450b3 -->
<g id="edge39" class="edge">
<title>f69a7a254c1724a9d9376fafa8fdaa450b2&#45;&gt;f69a7a254c1724a9d9376fafa8fdaa450b3</title>
<path fill="none" stroke="#000000" d="M157.5904,-365.4601C147.3718,-371.6742 131.9775,-382.9491 125.4264,-397.5807 120.988,-407.4937 121.3228,-419.5313 122.9528,-429.578"/>
<polygon fill="#000000" stroke="#000000" points="119.5602,-430.4514 125.0654,-439.5036 126.4068,-428.994 119.5602,-430.4514"/>
<text text-anchor="middle" x="152.9264" y="-401.3807" font-family="Times,serif" font-size="14.00" fill="#000000">rdf:rest</text>
</g>
<!-- d436bca3ad084b2890f692c51af1d548 -->
<g id="node28" class="node">
<title>d436bca3ad084b2890f692c51af1d548</title>
<polygon fill="#ff7f0e" stroke="#ff7f0e" points="235.4264,-469.5807 177.4264,-469.5807 177.4264,-430.5807 235.4264,-430.5807 235.4264,-469.5807"/>
<text text-anchor="middle" x="206.4264" y="-438.3807" font-family="Times,serif" font-size="14.00" fill="#000000">Apple</text>
</g>
<!-- f69a7a254c1724a9d9376fafa8fdaa450b2&#45;&gt;d436bca3ad084b2890f692c51af1d548 -->
<g id="edge28" class="edge">
<title>f69a7a254c1724a9d9376fafa8fdaa450b2&#45;&gt;d436bca3ad084b2890f692c51af1d548</title>
<path fill="none" stroke="#000000" d="M172.1237,-370.2317C175.5823,-377.7563 180.369,-388.2765 184.4264,-397.5807 187.7595,-405.224 191.2853,-413.532 194.5148,-421.2363"/>
<polygon fill="#000000" stroke="#000000" points="191.3306,-422.6943 198.4101,-430.5767 197.7913,-420 191.3306,-422.6943"/>
<text text-anchor="middle" x="219.4264" y="-401.3807" font-family="Times,serif" font-size="14.00" fill="#000000">rdf:first</text>
</g>
<!-- f69a7a254c1724a9d9376fafa8fdaa450b4&#45;&gt;http://www.w3.org/1999/02/22&#45;rdf&#45;syntax&#45;ns#nil -->
<g id="edge35" class="edge">
<title>f69a7a254c1724a9d9376fafa8fdaa450b4&#45;&gt;http://www.w3.org/1999/02/22&#45;rdf&#45;syntax&#45;ns#nil</title>
<path fill="none" stroke="#000000" d="M81.8951,-548.1667C75.4719,-555.4129 66.361,-566.5683 60.4264,-577.5807 56.0239,-585.7501 52.3863,-595.2035 49.5611,-603.8184"/>
<polygon fill="#000000" stroke="#000000" points="46.2026,-602.8326 46.6207,-613.4192 52.8958,-604.8825 46.2026,-602.8326"/>
<text text-anchor="middle" x="87.9264" y="-581.3807" font-family="Times,serif" font-size="14.00" fill="#000000">rdf:rest</text>
</g>
<!-- f143a7b04a6642db9c74127278035b57 -->
<g id="node26" class="node">
<title>f143a7b04a6642db9c74127278035b57</title>
<polygon fill="#ff7f0e" stroke="#ff7f0e" points="172.4264,-649.5807 102.4264,-649.5807 102.4264,-610.5807 172.4264,-610.5807 172.4264,-649.5807"/>
<text text-anchor="middle" x="137.4264" y="-618.3807" font-family="Times,serif" font-size="14.00" fill="#000000">Banana</text>
</g>
<!-- f69a7a254c1724a9d9376fafa8fdaa450b4&#45;&gt;f143a7b04a6642db9c74127278035b57 -->
<g id="edge34" class="edge">
<title>f69a7a254c1724a9d9376fafa8fdaa450b4&#45;&gt;f143a7b04a6642db9c74127278035b57</title>
<path fill="none" stroke="#000000" d="M96.3946,-548.9826C101.9803,-556.3727 109.7895,-567.2999 115.4264,-577.5807 119.4352,-584.8922 123.1913,-593.0872 126.4259,-600.789"/>
<polygon fill="#000000" stroke="#000000" points="123.229,-602.2196 130.2238,-610.1772 129.7181,-599.5945 123.229,-602.2196"/>
<text text-anchor="middle" x="150.4264" y="-581.3807" font-family="Times,serif" font-size="14.00" fill="#000000">rdf:first</text>
</g>
<!-- http://www.iiitd.ac.in/sweb/a1/q2/property#madeOf -->
<g id="node20" class="node">
<title>http://www.iiitd.ac.in/sweb/a1/q2/property#madeOf</title>
<ellipse fill="#e377c2" stroke="#e377c2" cx="1258.4264" cy="-99.7904" rx="98.9899" ry="16.0303"/>
<text text-anchor="middle" x="1258.4264" y="-96.0904" font-family="Times,serif" font-size="14.00" fill="#000000">property:madeOf</text>
</g>
<!-- http://www.iiitd.ac.in/sweb/a1/q2/property#madeOf&#45;&gt;http://www.w3.org/1999/02/22&#45;rdf&#45;syntax&#45;ns#Property -->
<g id="edge3" class="edge">
<title>http://www.iiitd.ac.in/sweb/a1/q2/property#madeOf&#45;&gt;http://www.w3.org/1999/02/22&#45;rdf&#45;syntax&#45;ns#Property</title>
<path fill="none" stroke="#000000" d="M1237.6084,-116.0837C1227.3493,-126.0684 1218.839,-138.847 1227.4264,-149.0538 1244.4611,-169.3008 1306.7079,-178.6164 1360.0305,-182.9023"/>
<polygon fill="#000000" stroke="#000000" points="1359.9797,-186.4083 1370.2145,-183.6699 1360.5059,-179.4281 1359.9797,-186.4083"/>
<text text-anchor="middle" x="1231.9264" y="-137.8538" font-family="Times,serif" font-size="14.00" fill="#000000">a</text>
</g>
<!-- http://www.iiitd.ac.in/sweb/a1/q2/property#madeOf&#45;&gt;http://www.w3.org/2000/01/rdf&#45;schema#Resource -->
<g id="edge8" class="edge">
<title>http://www.iiitd.ac.in/sweb/a1/q2/property#madeOf&#45;&gt;http://www.w3.org/2000/01/rdf&#45;schema#Resource</title>
<path fill="none" stroke="#000000" d="M1253.6739,-116.0972C1251.6235,-126.8643 1251.2774,-140.5124 1259.4264,-149.0538 1279.9515,-170.5674 1496.98,-162.9281 1526.4264,-167.0538 1535.6895,-168.3517 1545.4166,-170.0597 1554.9242,-171.9261"/>
<polygon fill="#000000" stroke="#000000" points="1554.2273,-175.3559 1564.7241,-173.9177 1555.6215,-168.4961 1554.2273,-175.3559"/>
<text text-anchor="middle" x="1296.9264" y="-137.8538" font-family="Times,serif" font-size="14.00" fill="#000000">rdfs:range</text>
</g>
<!-- http://www.iiitd.ac.in/sweb/a1/q2/property#madeOf&#45;&gt;http://www.w3.org/2000/01/rdf&#45;schema#Resource -->
<g id="edge21" class="edge">
<title>http://www.iiitd.ac.in/sweb/a1/q2/property#madeOf&#45;&gt;http://www.w3.org/2000/01/rdf&#45;schema#Resource</title>
<path fill="none" stroke="#000000" d="M1292.4171,-115.1745C1323.5435,-129.2156 1365.3834,-147.9526 1369.4264,-149.0538 1437.1925,-167.5117 1457.1182,-155.6823 1526.4264,-167.0538 1535.3252,-168.5139 1544.6692,-170.2641 1553.8413,-172.1087"/>
<polygon fill="#000000" stroke="#000000" points="1553.1969,-175.5494 1563.6973,-174.138 1554.6086,-168.6932 1553.1969,-175.5494"/>
<text text-anchor="middle" x="1412.4264" y="-137.8538" font-family="Times,serif" font-size="14.00" fill="#000000">rdfs:domain</text>
</g>
<!-- http://www.iiitd.ac.in/sweb/a1/q2/property#Likes -->
<g id="node21" class="node">
<title>http://www.iiitd.ac.in/sweb/a1/q2/property#Likes</title>
<ellipse fill="#e377c2" stroke="#e377c2" cx="1497.4264" cy="-99.7904" rx="86.0347" ry="16.0303"/>
<text text-anchor="middle" x="1497.4264" y="-96.0904" font-family="Times,serif" font-size="14.00" fill="#000000">property:Likes</text>
</g>
<!-- http://www.iiitd.ac.in/sweb/a1/q2/property#Likes&#45;&gt;http://www.w3.org/1999/02/22&#45;rdf&#45;syntax&#45;ns#Property -->
<g id="edge19" class="edge">
<title>http://www.iiitd.ac.in/sweb/a1/q2/property#Likes&#45;&gt;http://www.w3.org/1999/02/22&#45;rdf&#45;syntax&#45;ns#Property</title>
<path fill="none" stroke="#000000" d="M1480.8161,-115.9813C1475.7895,-121.4211 1470.522,-127.7225 1466.4264,-134.0538 1461.0859,-142.3098 1456.4414,-152.0141 1452.7513,-160.8187"/>
<polygon fill="#000000" stroke="#000000" points="1449.4432,-159.6661 1449.0044,-170.2518 1455.9488,-162.2502 1449.4432,-159.6661"/>
<text text-anchor="middle" x="1470.9264" y="-137.8538" font-family="Times,serif" font-size="14.00" fill="#000000">a</text>
</g>
<!-- http://www.iiitd.ac.in/sweb/a1/q2/property#Likes&#45;&gt;http://www.w3.org/2000/01/rdf&#45;schema#Resource -->
<g id="edge27" class="edge">
<title>http://www.iiitd.ac.in/sweb/a1/q2/property#Likes&#45;&gt;http://www.w3.org/2000/01/rdf&#45;schema#Resource</title>
<path fill="none" stroke="#000000" d="M1493.2089,-116.4406C1491.6022,-126.8119 1491.5541,-139.8794 1498.4264,-149.0538 1505.3011,-158.2314 1526.8436,-166.2319 1549.7456,-172.4592"/>
<polygon fill="#000000" stroke="#000000" points="1549.0466,-175.8937 1559.6052,-175.0177 1550.8049,-169.1181 1549.0466,-175.8937"/>
<text text-anchor="middle" x="1535.9264" y="-137.8538" font-family="Times,serif" font-size="14.00" fill="#000000">rdfs:range</text>
</g>
<!-- http://www.iiitd.ac.in/sweb/a1/q2/property#Likes&#45;&gt;http://www.w3.org/2000/01/rdf&#45;schema#Resource -->
<g id="edge36" class="edge">
<title>http://www.iiitd.ac.in/sweb/a1/q2/property#Likes&#45;&gt;http://www.w3.org/2000/01/rdf&#45;schema#Resource</title>
<path fill="none" stroke="#000000" d="M1538.3611,-114.2307C1550.2909,-119.4712 1562.9286,-126.0998 1573.4264,-134.0538 1583.6902,-141.8305 1593.1432,-152.4212 1600.6351,-162.054"/>
<polygon fill="#000000" stroke="#000000" points="1597.9051,-164.248 1606.6852,-170.1778 1603.5193,-160.067 1597.9051,-164.248"/>
<text text-anchor="middle" x="1632.4264" y="-137.8538" font-family="Times,serif" font-size="14.00" fill="#000000">rdfs:domain</text>
</g>
<!-- f69a7a254c1724a9d9376fafa8fdaa450b1 -->
<g id="node22" class="node">
<title>f69a7a254c1724a9d9376fafa8fdaa450b1</title>
<ellipse fill="#e377c2" stroke="#e377c2" cx="206.4264" cy="-273.3173" rx="11" ry="11"/>
</g>
<!-- f69a7a254c1724a9d9376fafa8fdaa450b1&#45;&gt;f69a7a254c1724a9d9376fafa8fdaa450b2 -->
<g id="edge1" class="edge">
<title>f69a7a254c1724a9d9376fafa8fdaa450b1&#45;&gt;f69a7a254c1724a9d9376fafa8fdaa450b2</title>
<path fill="none" stroke="#000000" d="M196.5451,-278.9228C187.3619,-284.7529 174.2524,-294.8119 168.4264,-307.5807 164.0273,-317.2222 163.4173,-328.9332 164.0622,-338.846"/>
<polygon fill="#000000" stroke="#000000" points="160.6142,-339.5112 165.1885,-349.0677 167.5721,-338.7445 160.6142,-339.5112"/>
<text text-anchor="middle" x="195.9264" y="-311.3807" font-family="Times,serif" font-size="14.00" fill="#000000">rdf:rest</text>
</g>
<!-- 3f56a14ac242498cb526d95770f45b56 -->
<g id="node25" class="node">
<title>3f56a14ac242498cb526d95770f45b56</title>
<polygon fill="#ff7f0e" stroke="#ff7f0e" points="280.4264,-379.5807 210.4264,-379.5807 210.4264,-340.5807 280.4264,-340.5807 280.4264,-379.5807"/>
<text text-anchor="middle" x="245.4264" y="-348.3807" font-family="Times,serif" font-size="14.00" fill="#000000">Orange</text>
</g>
<!-- f69a7a254c1724a9d9376fafa8fdaa450b1&#45;&gt;3f56a14ac242498cb526d95770f45b56 -->
<g id="edge9" class="edge">
<title>f69a7a254c1724a9d9376fafa8fdaa450b1&#45;&gt;3f56a14ac242498cb526d95770f45b56</title>
<path fill="none" stroke="#000000" d="M211.5044,-283.1331C214.9748,-289.9407 219.6172,-299.2462 223.4264,-307.5807 226.8925,-315.1646 230.4637,-323.4523 233.6941,-331.1562"/>
<polygon fill="#000000" stroke="#000000" points="230.5072,-332.6081 237.5703,-340.5052 236.9734,-329.9272 230.5072,-332.6081"/>
<text text-anchor="middle" x="258.4264" y="-311.3807" font-family="Times,serif" font-size="14.00" fill="#000000">rdf:first</text>
</g>
<!-- ub1bL37C25&#45;&gt;http://www.w3.org/1999/02/22&#45;rdf&#45;syntax&#45;ns#Seq -->
<g id="edge29" class="edge">
<title>ub1bL37C25&#45;&gt;http://www.w3.org/1999/02/22&#45;rdf&#45;syntax&#45;ns#Seq</title>
<path fill="none" stroke="#000000" d="M590.144,-102.8553C608.6774,-108.2886 647.7684,-120.3377 679.4264,-134.0538 701.9776,-143.8244 726.3798,-156.7363 745.3147,-167.3101"/>
<polygon fill="#000000" stroke="#000000" points="743.7096,-170.4231 754.1388,-172.2891 747.1495,-164.3266 743.7096,-170.4231"/>
<text text-anchor="middle" x="714.9264" y="-137.8538" font-family="Times,serif" font-size="14.00" fill="#000000">a</text>
</g>
<!-- ub1bL37C25&#45;&gt;http://www.iiitd.ac.in/sweb/a1/q2/AppleJuice -->
<g id="edge30" class="edge">
<title>ub1bL37C25&#45;&gt;http://www.iiitd.ac.in/sweb/a1/q2/AppleJuice</title>
<path fill="none" stroke="#000000" d="M589.0125,-105.2178C598.8084,-111.1843 613.897,-121.5961 623.4264,-134.0538 629.4466,-141.924 634.1259,-151.6828 637.591,-160.6435"/>
<polygon fill="#000000" stroke="#000000" points="634.3634,-162.0147 640.9942,-170.278 640.9637,-159.6832 634.3634,-162.0147"/>
<text text-anchor="middle" x="653.9264" y="-137.8538" font-family="Times,serif" font-size="14.00" fill="#000000">rdf:_3</text>
</g>
<!-- ub1bL37C25&#45;&gt;http://www.iiitd.ac.in/sweb/a1/q2/OrangeJuice -->
<g id="edge10" class="edge">
<title>ub1bL37C25&#45;&gt;http://www.iiitd.ac.in/sweb/a1/q2/OrangeJuice</title>
<path fill="none" stroke="#000000" d="M576.7864,-110.762C573.7019,-121.6047 567.6687,-138.113 557.4264,-149.0538 550.567,-156.381 541.9498,-162.5529 533.1062,-167.6399"/>
<polygon fill="#000000" stroke="#000000" points="531.4194,-164.5728 524.2438,-172.3677 534.7142,-170.7489 531.4194,-164.5728"/>
<text text-anchor="middle" x="589.9264" y="-137.8538" font-family="Times,serif" font-size="14.00" fill="#000000">rdf:_2</text>
</g>
<!-- ub1bL37C25&#45;&gt;http://www.iiitd.ac.in/sweb/a1/q2/MixedFruitJuice -->
<g id="edge17" class="edge">
<title>ub1bL37C25&#45;&gt;http://www.iiitd.ac.in/sweb/a1/q2/MixedFruitJuice</title>
<path fill="none" stroke="#000000" d="M568.389,-101.007C544.6388,-103.9567 487.3607,-112.8664 444.4264,-134.0538 434.7784,-138.815 434.9755,-144.0973 425.4264,-149.0538 407.7451,-158.2315 387.4732,-165.5102 368.4327,-171.118"/>
<polygon fill="#000000" stroke="#000000" points="367.2767,-167.8077 358.6083,-173.8994 369.1835,-174.543 367.2767,-167.8077"/>
<text text-anchor="middle" x="465.9264" y="-137.8538" font-family="Times,serif" font-size="14.00" fill="#000000">rdf:_1</text>
</g>
<!-- http://www.iiitd.ac.in/sweb/a1/q2/MixedFruitJuice&#45;&gt;http://www.iiitd.ac.in/sweb/a1/q2/FruitJuice -->
<g id="edge7" class="edge">
<title>http://www.iiitd.ac.in/sweb/a1/q2/MixedFruitJuice&#45;&gt;http://www.iiitd.ac.in/sweb/a1/q2/FruitJuice</title>
<path fill="none" stroke="#000000" d="M317.212,-202.5642C330.8996,-214.1444 350.7473,-229.3937 370.4264,-239.0538 389.4561,-248.3951 411.4569,-255.5794 431.4376,-260.8991"/>
<polygon fill="#000000" stroke="#000000" points="430.8124,-264.3518 441.3677,-263.4372 432.5458,-257.5698 430.8124,-264.3518"/>
<text text-anchor="middle" x="427.9264" y="-227.8538" font-family="Times,serif" font-size="14.00" fill="#000000">rdfs:subClassOf</text>
</g>
<!-- http://www.iiitd.ac.in/sweb/a1/q2/MixedFruitJuice&#45;&gt;f69a7a254c1724a9d9376fafa8fdaa450b1 -->
<g id="edge11" class="edge">
<title>http://www.iiitd.ac.in/sweb/a1/q2/MixedFruitJuice&#45;&gt;f69a7a254c1724a9d9376fafa8fdaa450b1</title>
<path fill="none" stroke="#000000" d="M239.8446,-199.2303C227.1553,-204.7544 215.2406,-212.6812 207.4264,-224.0538 201.8553,-232.1619 201.0877,-242.9266 201.9321,-252.325"/>
<polygon fill="#000000" stroke="#000000" points="198.5136,-253.1266 203.4728,-262.4891 205.4345,-252.0775 198.5136,-253.1266"/>
<text text-anchor="middle" x="269.4264" y="-227.8538" font-family="Times,serif" font-size="14.00" fill="#000000">property:madeOf</text>
</g>
<!-- http://www.iiitd.ac.in/sweb/a1/q2/property#FruitMealPreference -->
<g id="node32" class="node">
<title>http://www.iiitd.ac.in/sweb/a1/q2/property#FruitMealPreference</title>
<ellipse fill="#d3d3d3" stroke="#000000" cx="1935.4264" cy="-16.2635" rx="340.2368" ry="16.0303"/>
<text text-anchor="middle" x="1935.4264" y="-12.5635" font-family="Times,serif" font-size="14.00" fill="#000000">http://www.iiitd.ac.in/sweb/a1/q2/property#FruitMealPreference</text>
</g>
<!-- http://www.iiitd.ac.in/sweb/a1/q2/property#FruitMealPreference&#45;&gt;http://www.w3.org/2000/01/rdf&#45;schema#Literal -->
<g id="edge31" class="edge">
<title>http://www.iiitd.ac.in/sweb/a1/q2/property#FruitMealPreference&#45;&gt;http://www.w3.org/2000/01/rdf&#45;schema#Literal</title>
<path fill="none" stroke="#000000" d="M1969.1932,-32.5666C1997.6754,-46.3182 2038.4925,-66.0253 2068.5725,-80.5483"/>
<polygon fill="#000000" stroke="#000000" points="2067.4051,-83.8712 2077.9322,-85.0673 2070.4486,-77.5675 2067.4051,-83.8712"/>
<text text-anchor="middle" x="2073.9264" y="-54.3269" font-family="Times,serif" font-size="14.00" fill="#000000">rdfs:range</text>
</g>
<!-- http://www.iiitd.ac.in/sweb/a1/q2/property#FruitMealPreference&#45;&gt;http://www.iiitd.ac.in/sweb/a1/q2/property#Preference -->
<g id="edge18" class="edge">
<title>http://www.iiitd.ac.in/sweb/a1/q2/property#FruitMealPreference&#45;&gt;http://www.iiitd.ac.in/sweb/a1/q2/property#Preference</title>
<path fill="none" stroke="#000000" d="M1843.1596,-31.9506C1819.9393,-37.2137 1798.9137,-43.5421 1789.4264,-50.5269 1781.3268,-56.49 1775.0953,-65.4523 1770.5222,-74.1045"/>
<polygon fill="#000000" stroke="#000000" points="1767.3242,-72.6798 1766.2008,-83.2149 1773.6488,-75.6798 1767.3242,-72.6798"/>
<text text-anchor="middle" x="1855.4264" y="-54.3269" font-family="Times,serif" font-size="14.00" fill="#000000">rdf:subPropertyOf</text>
</g>
<!-- http://www.iiitd.ac.in/sweb/a1/q2/property#FruitMealPreference&#45;&gt;http://www.w3.org/2000/01/rdf&#45;schema#Resource -->
<g id="edge16" class="edge">
<title>http://www.iiitd.ac.in/sweb/a1/q2/property#FruitMealPreference&#45;&gt;http://www.w3.org/2000/01/rdf&#45;schema#Resource</title>
<path fill="none" stroke="#000000" d="M1937.2598,-32.5937C1939.4345,-60.8927 1939.2886,-118.9021 1906.4264,-149.0538 1891.6568,-162.6052 1784.428,-173.7491 1704.8701,-180.2733"/>
<polygon fill="#000000" stroke="#000000" points="1704.5089,-176.791 1694.8233,-181.0849 1705.0726,-183.7682 1704.5089,-176.791"/>
<text text-anchor="middle" x="1979.4264" y="-96.0904" font-family="Times,serif" font-size="14.00" fill="#000000">rdfs:domain</text>
</g>
</g>
</svg>
