<?xml version="1.0" encoding="UTF-8" standalone="no"?>
<!DOCTYPE svg PUBLIC "-//W3C//DTD SVG 1.1//EN"
 "http://www.w3.org/Graphics/SVG/1.1/DTD/svg11.dtd">
<!-- Generated by graphviz version 2.40.1 (20161225.0304)
 -->
<!-- Title: G Pages: 1 -->
<svg width="2142pt" height="658pt"
 viewBox="0.00 0.00 2142.18 657.58" xmlns="http://www.w3.org/2000/svg" xmlns:xlink="http://www.w3.org/1999/xlink">
<g id="graph0" class="graph" transform="scale(1 1) rotate(0) translate(4 653.5807)">
<title>G</title>
<polygon fill="#ffffff" stroke="transparent" points="-4,4 -4,-653.5807 2138.1823,-653.5807 2138.1823,4 -4,4"/>
<!-- http://www.w3.org/1999/02/22&#45;rdf&#45;syntax&#45;ns#Seq -->
<g id="node1" class="node">
<title>http://www.w3.org/1999/02/22&#45;rdf&#45;syntax&#45;ns#Seq</title>
<ellipse fill="#1f77b4" stroke="#1f77b4" cx="138.4264" cy="-186.5538" rx="48.5816" ry="16.0303"/>
<text text-anchor="middle" x="138.4264" y="-182.8538" font-family="Times,serif" font-size="14.00" fill="#000000">rdf:Seq</text>
</g>
<!-- http://www.w3.org/1999/02/22&#45;rdf&#45;syntax&#45;ns#Bag -->
<g id="node2" class="node">
<title>http://www.w3.org/1999/02/22&#45;rdf&#45;syntax&#45;ns#Bag</title>
<ellipse fill="#1f77b4" stroke="#1f77b4" cx="779.4264" cy="-186.5538" rx="49.4949" ry="16.0303"/>
<text text-anchor="middle" x="779.4264" y="-182.8538" font-family="Times,serif" font-size="14.00" fill="#000000">rdf:Bag</text>
</g>
<!-- http://xmlns.com/foaf/0.1/Person -->
<g id="node3" class="node">
<title>http://xmlns.com/foaf/0.1/Person</title>
<ellipse fill="#1f77b4" stroke="#1f77b4" cx="741.4264" cy="-99.7904" rx="68.6788" ry="16.0303"/>
<text text-anchor="middle" x="741.4264" y="-96.0904" font-family="Times,serif" font-size="14.00" fill="#000000">foaf:Person</text>
</g>
<!-- http://www.w3.org/1999/02/22&#45;rdf&#45;syntax&#45;ns#Alt -->
<g id="node4" class="node">
<title>http://www.w3.org/1999/02/22&#45;rdf&#45;syntax&#45;ns#Alt</title>
<ellipse fill="#1f77b4" stroke="#1f77b4" cx="891.4264" cy="-186.5538" rx="44.5955" ry="16.0303"/>
<text text-anchor="middle" x="891.4264" y="-182.8538" font-family="Times,serif" font-size="14.00" fill="#000000">rdf:Alt</text>
</g>
<!-- http://www.w3.org/2000/01/rdf&#45;schema#Class -->
<g id="node5" class="node">
<title>http://www.w3.org/2000/01/rdf&#45;schema#Class</title>
<ellipse fill="#1f77b4" stroke="#1f77b4" cx="491.4264" cy="-360.0807" rx="62.8651" ry="16.0303"/>
<text text-anchor="middle" x="491.4264" y="-356.3807" font-family="Times,serif" font-size="14.00" fill="#000000">rdfs:Class</text>
</g>
<!-- http://www.w3.org/1999/02/22&#45;rdf&#45;syntax&#45;ns#Property -->
<g id="node6" class="node">
<title>http://www.w3.org/1999/02/22&#45;rdf&#45;syntax&#45;ns#Property</title>
<ellipse fill="#1f77b4" stroke="#1f77b4" cx="1810.4264" cy="-99.7904" rx="74.4932" ry="16.0303"/>
<text text-anchor="middle" x="1810.4264" y="-96.0904" font-family="Times,serif" font-size="14.00" fill="#000000">rdf:Property</text>
</g>
<!-- f9e06bd1ba6944a6eadf8a33699dad14bb4 -->
<g id="node7" class="node">
<title>f9e06bd1ba6944a6eadf8a33699dad14bb4</title>
<ellipse fill="#e377c2" stroke="#e377c2" cx="89.4264" cy="-540.0807" rx="11" ry="11"/>
</g>
<!-- http://www.w3.org/1999/02/22&#45;rdf&#45;syntax&#45;ns#nil -->
<g id="node18" class="node">
<title>http://www.w3.org/1999/02/22&#45;rdf&#45;syntax&#45;ns#nil</title>
<ellipse fill="#e377c2" stroke="#e377c2" cx="42.4264" cy="-630.0807" rx="42.3529" ry="16.0303"/>
<text text-anchor="middle" x="42.4264" y="-626.3807" font-family="Times,serif" font-size="14.00" fill="#000000">rdf:nil</text>
</g>
<!-- f9e06bd1ba6944a6eadf8a33699dad14bb4&#45;&gt;http://www.w3.org/1999/02/22&#45;rdf&#45;syntax&#45;ns#nil -->
<g id="edge4" class="edge">
<title>f9e06bd1ba6944a6eadf8a33699dad14bb4&#45;&gt;http://www.w3.org/1999/02/22&#45;rdf&#45;syntax&#45;ns#nil</title>
<path fill="none" stroke="#000000" d="M81.8951,-548.1667C75.4719,-555.4129 66.361,-566.5683 60.4264,-577.5807 56.0239,-585.7501 52.3863,-595.2035 49.5611,-603.8184"/>
<polygon fill="#000000" stroke="#000000" points="46.2026,-602.8326 46.6207,-613.4192 52.8958,-604.8825 46.2026,-602.8326"/>
<text text-anchor="middle" x="87.9264" y="-581.3807" font-family="Times,serif" font-size="14.00" fill="#000000">rdf:rest</text>
</g>
<!-- 33bc1a72a36f43dfb48955b85cf01a96 -->
<g id="node27" class="node">
<title>33bc1a72a36f43dfb48955b85cf01a96</title>
<polygon fill="#ff7f0e" stroke="#ff7f0e" points="172.4264,-649.5807 102.4264,-649.5807 102.4264,-610.5807 172.4264,-610.5807 172.4264,-649.5807"/>
<text text-anchor="middle" x="137.4264" y="-618.3807" font-family="Times,serif" font-size="14.00" fill="#000000">Banana</text>
</g>
<!-- f9e06bd1ba6944a6eadf8a33699dad14bb4&#45;&gt;33bc1a72a36f43dfb48955b85cf01a96 -->
<g id="edge18" class="edge">
<title>f9e06bd1ba6944a6eadf8a33699dad14bb4&#45;&gt;33bc1a72a36f43dfb48955b85cf01a96</title>
<path fill="none" stroke="#000000" d="M96.3946,-548.9826C101.9803,-556.3727 109.7895,-567.2999 115.4264,-577.5807 119.4352,-584.8922 123.1913,-593.0872 126.4259,-600.789"/>
<polygon fill="#000000" stroke="#000000" points="123.229,-602.2196 130.2238,-610.1772 129.7181,-599.5945 123.229,-602.2196"/>
<text text-anchor="middle" x="150.4264" y="-581.3807" font-family="Times,serif" font-size="14.00" fill="#000000">rdf:first</text>
</g>
<!-- http://www.iiitd.ac.in/sweb/a1/q2/AppleJuice -->
<g id="node8" class="node">
<title>http://www.iiitd.ac.in/sweb/a1/q2/AppleJuice</title>
<ellipse fill="#e377c2" stroke="#e377c2" cx="645.4264" cy="-186.5538" rx="66.4361" ry="16.0303"/>
<text text-anchor="middle" x="645.4264" y="-182.8538" font-family="Times,serif" font-size="14.00" fill="#000000">AppleJuice</text>
</g>
<!-- http://www.iiitd.ac.in/sweb/a1/q2/FruitJuice -->
<g id="node11" class="node">
<title>http://www.iiitd.ac.in/sweb/a1/q2/FruitJuice</title>
<ellipse fill="#e377c2" stroke="#e377c2" cx="491.4264" cy="-273.3173" rx="62.8651" ry="16.0303"/>
<text text-anchor="middle" x="491.4264" y="-269.6173" font-family="Times,serif" font-size="14.00" fill="#000000">FruitJuice</text>
</g>
<!-- http://www.iiitd.ac.in/sweb/a1/q2/AppleJuice&#45;&gt;http://www.iiitd.ac.in/sweb/a1/q2/FruitJuice -->
<g id="edge22" class="edge">
<title>http://www.iiitd.ac.in/sweb/a1/q2/AppleJuice&#45;&gt;http://www.iiitd.ac.in/sweb/a1/q2/FruitJuice</title>
<path fill="none" stroke="#000000" d="M637.6112,-203.0343C631.2807,-214.6967 621.3052,-229.8423 608.4264,-239.0538 593.102,-250.0145 574.2886,-257.4954 556.2654,-262.5913"/>
<polygon fill="#000000" stroke="#000000" points="555.1486,-259.2656 546.3609,-265.184 556.9213,-266.0375 555.1486,-259.2656"/>
<text text-anchor="middle" x="681.9264" y="-227.8538" font-family="Times,serif" font-size="14.00" fill="#000000">rdfs:subClassOf</text>
</g>
<!-- http://www.iiitd.ac.in/sweb/a1/q2/OrangeJuice -->
<g id="node9" class="node">
<title>http://www.iiitd.ac.in/sweb/a1/q2/OrangeJuice</title>
<ellipse fill="#e377c2" stroke="#e377c2" cx="486.4264" cy="-186.5538" rx="74.9067" ry="16.0303"/>
<text text-anchor="middle" x="486.4264" y="-182.8538" font-family="Times,serif" font-size="14.00" fill="#000000">OrangeJuice</text>
</g>
<!-- http://www.iiitd.ac.in/sweb/a1/q2/OrangeJuice&#45;&gt;http://www.iiitd.ac.in/sweb/a1/q2/FruitJuice -->
<g id="edge16" class="edge">
<title>http://www.iiitd.ac.in/sweb/a1/q2/OrangeJuice&#45;&gt;http://www.iiitd.ac.in/sweb/a1/q2/FruitJuice</title>
<path fill="none" stroke="#000000" d="M487.3669,-202.8734C488.0747,-215.1562 489.0603,-232.2581 489.883,-246.5353"/>
<polygon fill="#000000" stroke="#000000" points="486.4035,-246.9939 490.4732,-256.7759 493.3919,-246.5911 486.4035,-246.9939"/>
<text text-anchor="middle" x="546.9264" y="-227.8538" font-family="Times,serif" font-size="14.00" fill="#000000">rdfs:subClassOf</text>
</g>
<!-- ub1bL37C25 -->
<g id="node10" class="node">
<title>ub1bL37C25</title>
<ellipse fill="#e377c2" stroke="#e377c2" cx="381.4264" cy="-99.7904" rx="11" ry="11"/>
</g>
<!-- ub1bL37C25&#45;&gt;http://www.w3.org/1999/02/22&#45;rdf&#45;syntax&#45;ns#Seq -->
<g id="edge27" class="edge">
<title>ub1bL37C25&#45;&gt;http://www.w3.org/1999/02/22&#45;rdf&#45;syntax&#45;ns#Seq</title>
<path fill="none" stroke="#000000" d="M370.985,-103.5185C338.7818,-115.0167 239.6892,-150.3978 181.7687,-171.0784"/>
<polygon fill="#000000" stroke="#000000" points="180.3914,-167.8537 172.1507,-174.5125 182.7453,-174.4461 180.3914,-167.8537"/>
<text text-anchor="middle" x="286.9264" y="-137.8538" font-family="Times,serif" font-size="14.00" fill="#000000">a</text>
</g>
<!-- ub1bL37C25&#45;&gt;http://www.iiitd.ac.in/sweb/a1/q2/AppleJuice -->
<g id="edge25" class="edge">
<title>ub1bL37C25&#45;&gt;http://www.iiitd.ac.in/sweb/a1/q2/AppleJuice</title>
<path fill="none" stroke="#000000" d="M392.244,-101.7862C412.5649,-105.8263 457.4534,-116.1452 491.4264,-134.0538 500.9439,-139.0709 500.8323,-144.1849 510.4264,-149.0538 517.8299,-152.811 555.7314,-163.2259 589.4964,-172.129"/>
<polygon fill="#000000" stroke="#000000" points="588.7802,-175.5595 599.3412,-174.7134 590.5577,-168.7889 588.7802,-175.5595"/>
<text text-anchor="middle" x="531.9264" y="-137.8538" font-family="Times,serif" font-size="14.00" fill="#000000">rdf:_3</text>
</g>
<!-- ub1bL37C25&#45;&gt;http://www.iiitd.ac.in/sweb/a1/q2/OrangeJuice -->
<g id="edge10" class="edge">
<title>ub1bL37C25&#45;&gt;http://www.iiitd.ac.in/sweb/a1/q2/OrangeJuice</title>
<path fill="none" stroke="#000000" d="M378.376,-110.6865C376.0503,-121.4706 374.4457,-137.9342 382.4264,-149.0538 388.3171,-157.2615 406.95,-165.0602 426.8491,-171.3984"/>
<polygon fill="#000000" stroke="#000000" points="426.0833,-174.8238 436.6692,-174.3879 428.122,-168.1272 426.0833,-174.8238"/>
<text text-anchor="middle" x="403.9264" y="-137.8538" font-family="Times,serif" font-size="14.00" fill="#000000">rdf:_2</text>
</g>
<!-- http://www.iiitd.ac.in/sweb/a1/q2/MixedFruitJuice -->
<g id="node17" class="node">
<title>http://www.iiitd.ac.in/sweb/a1/q2/MixedFruitJuice</title>
<ellipse fill="#e377c2" stroke="#e377c2" cx="299.4264" cy="-186.5538" rx="94.0904" ry="16.0303"/>
<text text-anchor="middle" x="299.4264" y="-182.8538" font-family="Times,serif" font-size="14.00" fill="#000000">MixedFruitJuice</text>
</g>
<!-- ub1bL37C25&#45;&gt;http://www.iiitd.ac.in/sweb/a1/q2/MixedFruitJuice -->
<g id="edge32" class="edge">
<title>ub1bL37C25&#45;&gt;http://www.iiitd.ac.in/sweb/a1/q2/MixedFruitJuice</title>
<path fill="none" stroke="#000000" d="M370.5852,-102.7039C356.1826,-107.1213 330.8801,-116.8735 316.4264,-134.0538 310.2424,-141.4045 306.2946,-151.0507 303.7801,-160.0666"/>
<polygon fill="#000000" stroke="#000000" points="300.3676,-159.2889 301.5073,-169.8222 307.1851,-160.8772 300.3676,-159.2889"/>
<text text-anchor="middle" x="337.9264" y="-137.8538" font-family="Times,serif" font-size="14.00" fill="#000000">rdf:_1</text>
</g>
<!-- http://www.iiitd.ac.in/sweb/a1/q2/FruitJuice&#45;&gt;http://www.w3.org/2000/01/rdf&#45;schema#Class -->
<g id="edge12" class="edge">
<title>http://www.iiitd.ac.in/sweb/a1/q2/FruitJuice&#45;&gt;http://www.w3.org/2000/01/rdf&#45;schema#Class</title>
<path fill="none" stroke="#000000" d="M491.4264,-289.6368C491.4264,-301.9197 491.4264,-319.0216 491.4264,-333.2988"/>
<polygon fill="#000000" stroke="#000000" points="487.9265,-333.5393 491.4264,-343.5394 494.9265,-333.5394 487.9265,-333.5393"/>
<text text-anchor="middle" x="495.9264" y="-311.3807" font-family="Times,serif" font-size="14.00" fill="#000000">a</text>
</g>
<!-- ub1bL43C34 -->
<g id="node12" class="node">
<title>ub1bL43C34</title>
<ellipse fill="#e377c2" stroke="#e377c2" cx="997.4264" cy="-99.7904" rx="11" ry="11"/>
</g>
<!-- ub1bL43C34&#45;&gt;http://www.w3.org/1999/02/22&#45;rdf&#45;syntax&#45;ns#Alt -->
<g id="edge6" class="edge">
<title>ub1bL43C34&#45;&gt;http://www.w3.org/1999/02/22&#45;rdf&#45;syntax&#45;ns#Alt</title>
<path fill="none" stroke="#000000" d="M988.752,-106.8906C973.3599,-119.4894 940.7067,-146.2168 917.4718,-165.235"/>
<polygon fill="#000000" stroke="#000000" points="915.2113,-162.5623 909.6899,-171.6047 919.6451,-167.9791 915.2113,-162.5623"/>
<text text-anchor="middle" x="958.9264" y="-137.8538" font-family="Times,serif" font-size="14.00" fill="#000000">a</text>
</g>
<!-- d816182938f049358dec910191c9f354 -->
<g id="node26" class="node">
<title>d816182938f049358dec910191c9f354</title>
<polygon fill="#ff7f0e" stroke="#ff7f0e" points="1040.9264,-206.0538 953.9264,-206.0538 953.9264,-167.0538 1040.9264,-167.0538 1040.9264,-206.0538"/>
<text text-anchor="middle" x="997.4264" y="-174.8538" font-family="Times,serif" font-size="14.00" fill="#000000">Pineapple</text>
</g>
<!-- ub1bL43C34&#45;&gt;d816182938f049358dec910191c9f354 -->
<g id="edge39" class="edge">
<title>ub1bL43C34&#45;&gt;d816182938f049358dec910191c9f354</title>
<path fill="none" stroke="#000000" d="M997.4264,-111.1332C997.4264,-122.6282 997.4264,-140.904 997.4264,-156.5861"/>
<polygon fill="#000000" stroke="#000000" points="993.9265,-156.9133 997.4264,-166.9133 1000.9265,-156.9133 993.9265,-156.9133"/>
<text text-anchor="middle" x="1018.9264" y="-137.8538" font-family="Times,serif" font-size="14.00" fill="#000000">rdf:_1</text>
</g>
<!-- 58d6f7e58e6d431faae1796d6558bbe4 -->
<g id="node28" class="node">
<title>58d6f7e58e6d431faae1796d6558bbe4</title>
<polygon fill="#ff7f0e" stroke="#ff7f0e" points="1117.4264,-206.0538 1059.4264,-206.0538 1059.4264,-167.0538 1117.4264,-167.0538 1117.4264,-206.0538"/>
<text text-anchor="middle" x="1088.4264" y="-174.8538" font-family="Times,serif" font-size="14.00" fill="#000000">Apple</text>
</g>
<!-- ub1bL43C34&#45;&gt;58d6f7e58e6d431faae1796d6558bbe4 -->
<g id="edge21" class="edge">
<title>ub1bL43C34&#45;&gt;58d6f7e58e6d431faae1796d6558bbe4</title>
<path fill="none" stroke="#000000" d="M1006.9492,-105.7388C1016.8283,-112.1303 1032.4749,-122.8842 1044.4264,-134.0538 1052.5251,-141.6227 1060.5595,-150.6399 1067.5026,-159.0473"/>
<polygon fill="#000000" stroke="#000000" points="1064.7925,-161.2623 1073.7916,-166.854 1070.2437,-156.8709 1064.7925,-161.2623"/>
<text text-anchor="middle" x="1080.9264" y="-137.8538" font-family="Times,serif" font-size="14.00" fill="#000000">rdf:_3</text>
</g>
<!-- eba9598b6b8f49479ea9d674ce3520c9 -->
<g id="node31" class="node">
<title>eba9598b6b8f49479ea9d674ce3520c9</title>
<polygon fill="#ff7f0e" stroke="#ff7f0e" points="1205.4264,-206.0538 1135.4264,-206.0538 1135.4264,-167.0538 1205.4264,-167.0538 1205.4264,-206.0538"/>
<text text-anchor="middle" x="1170.4264" y="-174.8538" font-family="Times,serif" font-size="14.00" fill="#000000">Orange</text>
</g>
<!-- ub1bL43C34&#45;&gt;eba9598b6b8f49479ea9d674ce3520c9 -->
<g id="edge15" class="edge">
<title>ub1bL43C34&#45;&gt;eba9598b6b8f49479ea9d674ce3520c9</title>
<path fill="none" stroke="#000000" d="M1008.4937,-101.8094C1028.8276,-105.828 1073.1005,-116.0298 1106.4264,-134.0538 1119.3201,-141.0273 1132.0993,-150.7782 1142.8083,-159.9864"/>
<polygon fill="#000000" stroke="#000000" points="1140.759,-162.8472 1150.5617,-166.8671 1145.4054,-157.6116 1140.759,-162.8472"/>
<text text-anchor="middle" x="1150.9264" y="-137.8538" font-family="Times,serif" font-size="14.00" fill="#000000">rdf:_2</text>
</g>
<!-- ub1bL31C20 -->
<g id="node13" class="node">
<title>ub1bL31C20</title>
<ellipse fill="#e377c2" stroke="#e377c2" cx="612.4264" cy="-99.7904" rx="11" ry="11"/>
</g>
<!-- ub1bL31C20&#45;&gt;http://www.w3.org/1999/02/22&#45;rdf&#45;syntax&#45;ns#Bag -->
<g id="edge1" class="edge">
<title>ub1bL31C20&#45;&gt;http://www.w3.org/1999/02/22&#45;rdf&#45;syntax&#45;ns#Bag</title>
<path fill="none" stroke="#000000" d="M622.2672,-104.8971C635.1653,-111.5909 658.4916,-123.6982 678.4264,-134.0538 700.1286,-145.3275 724.4502,-157.9697 743.7876,-168.023"/>
<polygon fill="#000000" stroke="#000000" points="742.3598,-171.2254 752.8468,-172.7329 745.5888,-165.0146 742.3598,-171.2254"/>
<text text-anchor="middle" x="710.9264" y="-137.8538" font-family="Times,serif" font-size="14.00" fill="#000000">a</text>
</g>
<!-- ub1bL31C20&#45;&gt;http://www.iiitd.ac.in/sweb/a1/q2/AppleJuice -->
<g id="edge23" class="edge">
<title>ub1bL31C20&#45;&gt;http://www.iiitd.ac.in/sweb/a1/q2/AppleJuice</title>
<path fill="none" stroke="#000000" d="M616.3415,-110.084C621.0513,-122.4668 629.129,-143.7048 635.5783,-160.6612"/>
<polygon fill="#000000" stroke="#000000" points="632.3232,-161.9483 639.1496,-170.0508 638.8659,-159.4598 632.3232,-161.9483"/>
<text text-anchor="middle" x="652.9264" y="-137.8538" font-family="Times,serif" font-size="14.00" fill="#000000">rdf:_2</text>
</g>
<!-- ub1bL31C20&#45;&gt;http://www.iiitd.ac.in/sweb/a1/q2/OrangeJuice -->
<g id="edge40" class="edge">
<title>ub1bL31C20&#45;&gt;http://www.iiitd.ac.in/sweb/a1/q2/OrangeJuice</title>
<path fill="none" stroke="#000000" d="M604.7468,-107.7929C594.5619,-118.1309 575.7318,-136.3094 557.4264,-149.0538 548.1418,-155.5179 537.6084,-161.6523 527.5512,-167.0164"/>
<polygon fill="#000000" stroke="#000000" points="525.7628,-164.0012 518.4983,-171.7134 528.9866,-170.2146 525.7628,-164.0012"/>
<text text-anchor="middle" x="598.9264" y="-137.8538" font-family="Times,serif" font-size="14.00" fill="#000000">rdf:_1</text>
</g>
<!-- ub1bL31C20&#45;&gt;http://www.iiitd.ac.in/sweb/a1/q2/MixedFruitJuice -->
<g id="edge28" class="edge">
<title>ub1bL31C20&#45;&gt;http://www.iiitd.ac.in/sweb/a1/q2/MixedFruitJuice</title>
<path fill="none" stroke="#000000" d="M601.2648,-100.2914C573.4828,-101.906 499.5026,-108.4781 444.4264,-134.0538 434.6683,-138.5852 434.9755,-144.0973 425.4264,-149.0538 407.7451,-158.2315 387.4732,-165.5102 368.4327,-171.118"/>
<polygon fill="#000000" stroke="#000000" points="367.2767,-167.8077 358.6083,-173.8994 369.1835,-174.543 367.2767,-167.8077"/>
<text text-anchor="middle" x="465.9264" y="-137.8538" font-family="Times,serif" font-size="14.00" fill="#000000">rdf:_3</text>
</g>
<!-- http://www.w3.org/2000/01/rdf&#45;schema#Literal -->
<g id="node14" class="node">
<title>http://www.w3.org/2000/01/rdf&#45;schema#Literal</title>
<ellipse fill="#e377c2" stroke="#e377c2" cx="1999.4264" cy="-99.7904" rx="69.0935" ry="16.0303"/>
<text text-anchor="middle" x="1999.4264" y="-96.0904" font-family="Times,serif" font-size="14.00" fill="#000000">rdfs:Literal</text>
</g>
<!-- http://www.w3.org/2000/01/rdf&#45;schema#Resource -->
<g id="node15" class="node">
<title>http://www.w3.org/2000/01/rdf&#45;schema#Resource</title>
<ellipse fill="#e377c2" stroke="#e377c2" cx="1457.4264" cy="-99.7904" rx="82.0488" ry="16.0303"/>
<text text-anchor="middle" x="1457.4264" y="-96.0904" font-family="Times,serif" font-size="14.00" fill="#000000">rdfs:Resource</text>
</g>
<!-- f9e06bd1ba6944a6eadf8a33699dad14bb3 -->
<g id="node16" class="node">
<title>f9e06bd1ba6944a6eadf8a33699dad14bb3</title>
<ellipse fill="#e377c2" stroke="#e377c2" cx="128.4264" cy="-450.0807" rx="11" ry="11"/>
</g>
<!-- f9e06bd1ba6944a6eadf8a33699dad14bb3&#45;&gt;f9e06bd1ba6944a6eadf8a33699dad14bb4 -->
<g id="edge3" class="edge">
<title>f9e06bd1ba6944a6eadf8a33699dad14bb3&#45;&gt;f9e06bd1ba6944a6eadf8a33699dad14bb4</title>
<path fill="none" stroke="#000000" d="M118.8712,-456.197C109.6581,-462.712 96.2769,-473.9536 90.4264,-487.5807 86.2456,-497.3188 85.6556,-509.0387 86.2573,-518.9324"/>
<polygon fill="#000000" stroke="#000000" points="82.8013,-519.5386 87.3152,-529.1238 89.7639,-518.8158 82.8013,-519.5386"/>
<text text-anchor="middle" x="117.9264" y="-491.3807" font-family="Times,serif" font-size="14.00" fill="#000000">rdf:rest</text>
</g>
<!-- fb9654274a3944228410d656240e5196 -->
<g id="node32" class="node">
<title>fb9654274a3944228410d656240e5196</title>
<polygon fill="#ff7f0e" stroke="#ff7f0e" points="201.4264,-559.5807 133.4264,-559.5807 133.4264,-520.5807 201.4264,-520.5807 201.4264,-559.5807"/>
<text text-anchor="middle" x="167.4264" y="-528.3807" font-family="Times,serif" font-size="14.00" fill="#000000">Papaya</text>
</g>
<!-- f9e06bd1ba6944a6eadf8a33699dad14bb3&#45;&gt;fb9654274a3944228410d656240e5196 -->
<g id="edge20" class="edge">
<title>f9e06bd1ba6944a6eadf8a33699dad14bb3&#45;&gt;fb9654274a3944228410d656240e5196</title>
<path fill="none" stroke="#000000" d="M133.1237,-460.2317C136.5823,-467.7563 141.369,-478.2765 145.4264,-487.5807 148.7595,-495.224 152.2853,-503.532 155.5148,-511.2363"/>
<polygon fill="#000000" stroke="#000000" points="152.3306,-512.6943 159.4101,-520.5767 158.7913,-510 152.3306,-512.6943"/>
<text text-anchor="middle" x="180.4264" y="-491.3807" font-family="Times,serif" font-size="14.00" fill="#000000">rdf:first</text>
</g>
<!-- http://www.iiitd.ac.in/sweb/a1/q2/MixedFruitJuice&#45;&gt;http://www.iiitd.ac.in/sweb/a1/q2/FruitJuice -->
<g id="edge13" class="edge">
<title>http://www.iiitd.ac.in/sweb/a1/q2/MixedFruitJuice&#45;&gt;http://www.iiitd.ac.in/sweb/a1/q2/FruitJuice</title>
<path fill="none" stroke="#000000" d="M317.212,-202.5642C330.8996,-214.1444 350.7473,-229.3937 370.4264,-239.0538 389.4561,-248.3951 411.4569,-255.5794 431.4376,-260.8991"/>
<polygon fill="#000000" stroke="#000000" points="430.8124,-264.3518 441.3677,-263.4372 432.5458,-257.5698 430.8124,-264.3518"/>
<text text-anchor="middle" x="427.9264" y="-227.8538" font-family="Times,serif" font-size="14.00" fill="#000000">rdfs:subClassOf</text>
</g>
<!-- f9e06bd1ba6944a6eadf8a33699dad14bb1 -->
<g id="node21" class="node">
<title>f9e06bd1ba6944a6eadf8a33699dad14bb1</title>
<ellipse fill="#e377c2" stroke="#e377c2" cx="206.4264" cy="-273.3173" rx="11" ry="11"/>
</g>
<!-- http://www.iiitd.ac.in/sweb/a1/q2/MixedFruitJuice&#45;&gt;f9e06bd1ba6944a6eadf8a33699dad14bb1 -->
<g id="edge38" class="edge">
<title>http://www.iiitd.ac.in/sweb/a1/q2/MixedFruitJuice&#45;&gt;f9e06bd1ba6944a6eadf8a33699dad14bb1</title>
<path fill="none" stroke="#000000" d="M239.8446,-199.2303C227.1553,-204.7544 215.2406,-212.6812 207.4264,-224.0538 201.8553,-232.1619 201.0877,-242.9266 201.9321,-252.325"/>
<polygon fill="#000000" stroke="#000000" points="198.5136,-253.1266 203.4728,-262.4891 205.4345,-252.0775 198.5136,-253.1266"/>
<text text-anchor="middle" x="269.4264" y="-227.8538" font-family="Times,serif" font-size="14.00" fill="#000000">property:madeOf</text>
</g>
<!-- http://www.iiitd.ac.in/sweb/a1/q2/Mary -->
<g id="node19" class="node">
<title>http://www.iiitd.ac.in/sweb/a1/q2/Mary</title>
<ellipse fill="#e377c2" stroke="#e377c2" cx="677.4264" cy="-16.2635" rx="38.3684" ry="16.0303"/>
<text text-anchor="middle" x="677.4264" y="-12.5635" font-family="Times,serif" font-size="14.00" fill="#000000">Mary</text>
</g>
<!-- http://www.iiitd.ac.in/sweb/a1/q2/Mary&#45;&gt;http://xmlns.com/foaf/0.1/Person -->
<g id="edge37" class="edge">
<title>http://www.iiitd.ac.in/sweb/a1/q2/Mary&#45;&gt;http://xmlns.com/foaf/0.1/Person</title>
<path fill="none" stroke="#000000" d="M698.4036,-30.2682C705.7402,-35.917 713.5927,-42.9046 719.4264,-50.5269 724.7101,-57.4306 729.0543,-65.8037 732.4458,-73.6733"/>
<polygon fill="#000000" stroke="#000000" points="729.2926,-75.2169 736.2311,-83.2237 735.8001,-72.6376 729.2926,-75.2169"/>
<text text-anchor="middle" x="732.9264" y="-54.3269" font-family="Times,serif" font-size="14.00" fill="#000000">a</text>
</g>
<!-- http://www.iiitd.ac.in/sweb/a1/q2/Mary&#45;&gt;ub1bL37C25 -->
<g id="edge8" class="edge">
<title>http://www.iiitd.ac.in/sweb/a1/q2/Mary&#45;&gt;ub1bL37C25</title>
<path fill="none" stroke="#000000" d="M639.8998,-20.0746C585.6811,-25.9161 488.3282,-37.7564 455.4264,-50.5269 433.7411,-58.9438 411.9401,-74.5257 397.6762,-85.9183"/>
<polygon fill="#000000" stroke="#000000" points="395.335,-83.3121 389.8373,-92.369 399.783,-88.7173 395.335,-83.3121"/>
<text text-anchor="middle" x="528.4264" y="-54.3269" font-family="Times,serif" font-size="14.00" fill="#000000">property:Preference</text>
</g>
<!-- http://www.iiitd.ac.in/sweb/a1/q2/Mary&#45;&gt;ub1bL43C34 -->
<g id="edge34" class="edge">
<title>http://www.iiitd.ac.in/sweb/a1/q2/Mary&#45;&gt;ub1bL43C34</title>
<path fill="none" stroke="#000000" d="M710.1682,-24.8098C776.0371,-42.003 922.8828,-80.3329 976.9399,-94.4429"/>
<polygon fill="#000000" stroke="#000000" points="976.1746,-97.8604 986.7344,-96.9995 977.9426,-91.0873 976.1746,-97.8604"/>
<text text-anchor="middle" x="974.9264" y="-54.3269" font-family="Times,serif" font-size="14.00" fill="#000000">property:FruitMealPreference</text>
</g>
<!-- http://www.iiitd.ac.in/sweb/a1/q2/Mary&#45;&gt;ub1bL31C20 -->
<g id="edge17" class="edge">
<title>http://www.iiitd.ac.in/sweb/a1/q2/Mary&#45;&gt;ub1bL31C20</title>
<path fill="none" stroke="#000000" d="M644.4547,-24.6242C631.177,-29.7862 617.1908,-37.9203 609.4264,-50.5269 604.2028,-59.0083 604.3419,-69.9454 606.0504,-79.359"/>
<polygon fill="#000000" stroke="#000000" points="602.6647,-80.2481 608.4441,-89.1278 609.4635,-78.5821 602.6647,-80.2481"/>
<text text-anchor="middle" x="662.4264" y="-54.3269" font-family="Times,serif" font-size="14.00" fill="#000000">property:Likes</text>
</g>
<!-- http://www.iiitd.ac.in/sweb/a1/q2/property#Likes -->
<g id="node20" class="node">
<title>http://www.iiitd.ac.in/sweb/a1/q2/property#Likes</title>
<ellipse fill="#e377c2" stroke="#e377c2" cx="1237.4264" cy="-16.2635" rx="86.0347" ry="16.0303"/>
<text text-anchor="middle" x="1237.4264" y="-12.5635" font-family="Times,serif" font-size="14.00" fill="#000000">property:Likes</text>
</g>
<!-- http://www.iiitd.ac.in/sweb/a1/q2/property#Likes&#45;&gt;http://www.w3.org/1999/02/22&#45;rdf&#45;syntax&#45;ns#Property -->
<g id="edge26" class="edge">
<title>http://www.iiitd.ac.in/sweb/a1/q2/property#Likes&#45;&gt;http://www.w3.org/1999/02/22&#45;rdf&#45;syntax&#45;ns#Property</title>
<path fill="none" stroke="#000000" d="M1298.3382,-27.8536C1309.6361,-29.6722 1321.3625,-31.3399 1332.4264,-32.5269 1422.4427,-42.1841 1653.6442,-21.5853 1739.4264,-50.5269 1744.1909,-52.1344 1763.4364,-65.5684 1780.6895,-78.0014"/>
<polygon fill="#000000" stroke="#000000" points="1778.7751,-80.9364 1788.9269,-83.9683 1782.8816,-75.2674 1778.7751,-80.9364"/>
<text text-anchor="middle" x="1767.9264" y="-54.3269" font-family="Times,serif" font-size="14.00" fill="#000000">a</text>
</g>
<!-- http://www.iiitd.ac.in/sweb/a1/q2/property#Likes&#45;&gt;http://www.w3.org/2000/01/rdf&#45;schema#Resource -->
<g id="edge29" class="edge">
<title>http://www.iiitd.ac.in/sweb/a1/q2/property#Likes&#45;&gt;http://www.w3.org/2000/01/rdf&#45;schema#Resource</title>
<path fill="none" stroke="#000000" d="M1239.2184,-32.89C1241.293,-43.7998 1245.7691,-57.4871 1255.4264,-65.5269 1272.904,-80.0772 1323.3177,-88.6404 1369.4051,-93.5674"/>
<polygon fill="#000000" stroke="#000000" points="1369.1618,-97.0606 1379.4655,-94.5941 1369.8726,-90.0968 1369.1618,-97.0606"/>
<text text-anchor="middle" x="1298.4264" y="-54.3269" font-family="Times,serif" font-size="14.00" fill="#000000">rdfs:domain</text>
</g>
<!-- http://www.iiitd.ac.in/sweb/a1/q2/property#Likes&#45;&gt;http://www.w3.org/2000/01/rdf&#45;schema#Resource -->
<g id="edge35" class="edge">
<title>http://www.iiitd.ac.in/sweb/a1/q2/property#Likes&#45;&gt;http://www.w3.org/2000/01/rdf&#45;schema#Resource</title>
<path fill="none" stroke="#000000" d="M1192.356,-30.1319C1171.4159,-38.8599 1153.6659,-51.1758 1166.4264,-65.5269 1179.7573,-80.5195 1287.16,-90.0454 1367.6341,-95.1489"/>
<polygon fill="#000000" stroke="#000000" points="1367.605,-98.6537 1377.8025,-95.7795 1368.0383,-91.6671 1367.605,-98.6537"/>
<text text-anchor="middle" x="1203.9264" y="-54.3269" font-family="Times,serif" font-size="14.00" fill="#000000">rdfs:range</text>
</g>
<!-- f9e06bd1ba6944a6eadf8a33699dad14bb2 -->
<g id="node22" class="node">
<title>f9e06bd1ba6944a6eadf8a33699dad14bb2</title>
<ellipse fill="#e377c2" stroke="#e377c2" cx="167.4264" cy="-360.0807" rx="11" ry="11"/>
</g>
<!-- f9e06bd1ba6944a6eadf8a33699dad14bb1&#45;&gt;f9e06bd1ba6944a6eadf8a33699dad14bb2 -->
<g id="edge19" class="edge">
<title>f9e06bd1ba6944a6eadf8a33699dad14bb1&#45;&gt;f9e06bd1ba6944a6eadf8a33699dad14bb2</title>
<path fill="none" stroke="#000000" d="M196.2413,-278.2133C186.0468,-283.7465 170.9645,-293.8093 164.4264,-307.5807 159.7683,-317.3923 160.0875,-329.4228 161.764,-339.4909"/>
<polygon fill="#000000" stroke="#000000" points="158.3861,-340.428 163.9444,-349.4478 165.2241,-338.9305 158.3861,-340.428"/>
<text text-anchor="middle" x="191.9264" y="-311.3807" font-family="Times,serif" font-size="14.00" fill="#000000">rdf:rest</text>
</g>
<!-- 4a08f471451d4ba6b041b2d7c2016ff5 -->
<g id="node30" class="node">
<title>4a08f471451d4ba6b041b2d7c2016ff5</title>
<polygon fill="#ff7f0e" stroke="#ff7f0e" points="280.4264,-379.5807 210.4264,-379.5807 210.4264,-340.5807 280.4264,-340.5807 280.4264,-379.5807"/>
<text text-anchor="middle" x="245.4264" y="-348.3807" font-family="Times,serif" font-size="14.00" fill="#000000">Orange</text>
</g>
<!-- f9e06bd1ba6944a6eadf8a33699dad14bb1&#45;&gt;4a08f471451d4ba6b041b2d7c2016ff5 -->
<g id="edge14" class="edge">
<title>f9e06bd1ba6944a6eadf8a33699dad14bb1&#45;&gt;4a08f471451d4ba6b041b2d7c2016ff5</title>
<path fill="none" stroke="#000000" d="M211.5044,-283.1331C214.9748,-289.9407 219.6172,-299.2462 223.4264,-307.5807 226.8925,-315.1646 230.4637,-323.4523 233.6941,-331.1562"/>
<polygon fill="#000000" stroke="#000000" points="230.5072,-332.6081 237.5703,-340.5052 236.9734,-329.9272 230.5072,-332.6081"/>
<text text-anchor="middle" x="258.4264" y="-311.3807" font-family="Times,serif" font-size="14.00" fill="#000000">rdf:first</text>
</g>
<!-- f9e06bd1ba6944a6eadf8a33699dad14bb2&#45;&gt;f9e06bd1ba6944a6eadf8a33699dad14bb3 -->
<g id="edge24" class="edge">
<title>f9e06bd1ba6944a6eadf8a33699dad14bb2&#45;&gt;f9e06bd1ba6944a6eadf8a33699dad14bb3</title>
<path fill="none" stroke="#000000" d="M157.8712,-366.197C148.6581,-372.712 135.2769,-383.9536 129.4264,-397.5807 125.2456,-407.3188 124.6556,-419.0387 125.2573,-428.9324"/>
<polygon fill="#000000" stroke="#000000" points="121.8013,-429.5386 126.3152,-439.1238 128.7639,-428.8158 121.8013,-429.5386"/>
<text text-anchor="middle" x="156.9264" y="-401.3807" font-family="Times,serif" font-size="14.00" fill="#000000">rdf:rest</text>
</g>
<!-- 8030839359bd49d7bbeaaf193b6586ba -->
<g id="node29" class="node">
<title>8030839359bd49d7bbeaaf193b6586ba</title>
<polygon fill="#ff7f0e" stroke="#ff7f0e" points="235.4264,-469.5807 177.4264,-469.5807 177.4264,-430.5807 235.4264,-430.5807 235.4264,-469.5807"/>
<text text-anchor="middle" x="206.4264" y="-438.3807" font-family="Times,serif" font-size="14.00" fill="#000000">Apple</text>
</g>
<!-- f9e06bd1ba6944a6eadf8a33699dad14bb2&#45;&gt;8030839359bd49d7bbeaaf193b6586ba -->
<g id="edge30" class="edge">
<title>f9e06bd1ba6944a6eadf8a33699dad14bb2&#45;&gt;8030839359bd49d7bbeaaf193b6586ba</title>
<path fill="none" stroke="#000000" d="M172.1237,-370.2317C175.5823,-377.7563 180.369,-388.2765 184.4264,-397.5807 187.7595,-405.224 191.2853,-413.532 194.5148,-421.2363"/>
<polygon fill="#000000" stroke="#000000" points="191.3306,-422.6943 198.4101,-430.5767 197.7913,-420 191.3306,-422.6943"/>
<text text-anchor="middle" x="219.4264" y="-401.3807" font-family="Times,serif" font-size="14.00" fill="#000000">rdf:first</text>
</g>
<!-- http://www.iiitd.ac.in/sweb/a1/q2/property#Preference -->
<g id="node23" class="node">
<title>http://www.iiitd.ac.in/sweb/a1/q2/property#Preference</title>
<ellipse fill="#e377c2" stroke="#e377c2" cx="1672.4264" cy="-16.2635" rx="114.6026" ry="16.0303"/>
<text text-anchor="middle" x="1672.4264" y="-12.5635" font-family="Times,serif" font-size="14.00" fill="#000000">property:Preference</text>
</g>
<!-- http://www.iiitd.ac.in/sweb/a1/q2/property#Preference&#45;&gt;http://www.w3.org/1999/02/22&#45;rdf&#45;syntax&#45;ns#Property -->
<g id="edge7" class="edge">
<title>http://www.iiitd.ac.in/sweb/a1/q2/property#Preference&#45;&gt;http://www.w3.org/1999/02/22&#45;rdf&#45;syntax&#45;ns#Property</title>
<path fill="none" stroke="#000000" d="M1748.5531,-28.439C1773.2356,-33.9423 1796.3565,-41.3075 1804.4264,-50.5269 1809.7926,-56.6575 1812.0131,-64.9807 1812.6797,-73.0403"/>
<polygon fill="#000000" stroke="#000000" points="1809.1824,-73.3168 1812.7946,-83.2768 1816.182,-73.2381 1809.1824,-73.3168"/>
<text text-anchor="middle" x="1815.9264" y="-54.3269" font-family="Times,serif" font-size="14.00" fill="#000000">a</text>
</g>
<!-- http://www.iiitd.ac.in/sweb/a1/q2/property#Preference&#45;&gt;http://www.w3.org/2000/01/rdf&#45;schema#Resource -->
<g id="edge11" class="edge">
<title>http://www.iiitd.ac.in/sweb/a1/q2/property#Preference&#45;&gt;http://www.w3.org/2000/01/rdf&#45;schema#Resource</title>
<path fill="none" stroke="#000000" d="M1663.0528,-32.5446C1655.8293,-43.589 1644.8233,-57.577 1631.4264,-65.5269 1615.2025,-75.1544 1574.6377,-83.4162 1536.7543,-89.4136"/>
<polygon fill="#000000" stroke="#000000" points="1536.0317,-85.9836 1526.6818,-90.9666 1537.0983,-92.9018 1536.0317,-85.9836"/>
<text text-anchor="middle" x="1692.4264" y="-54.3269" font-family="Times,serif" font-size="14.00" fill="#000000">rdfs:domain</text>
</g>
<!-- http://www.iiitd.ac.in/sweb/a1/q2/property#Preference&#45;&gt;http://www.w3.org/2000/01/rdf&#45;schema#Resource -->
<g id="edge31" class="edge">
<title>http://www.iiitd.ac.in/sweb/a1/q2/property#Preference&#45;&gt;http://www.w3.org/2000/01/rdf&#45;schema#Resource</title>
<path fill="none" stroke="#000000" d="M1610.3118,-29.932C1591.2731,-35.1898 1570.5732,-42.022 1552.4264,-50.5269 1541.7107,-55.5491 1540.7044,-59.6608 1530.4264,-65.5269 1521.212,-70.7859 1511.0561,-75.9339 1501.3235,-80.5756"/>
<polygon fill="#000000" stroke="#000000" points="1499.7422,-77.4512 1492.1665,-84.8579 1502.7076,-83.7921 1499.7422,-77.4512"/>
<text text-anchor="middle" x="1589.9264" y="-54.3269" font-family="Times,serif" font-size="14.00" fill="#000000">rdfs:range</text>
</g>
<!-- http://www.iiitd.ac.in/sweb/a1/q2/property#madeOf -->
<g id="node24" class="node">
<title>http://www.iiitd.ac.in/sweb/a1/q2/property#madeOf</title>
<ellipse fill="#e377c2" stroke="#e377c2" cx="1440.4264" cy="-16.2635" rx="98.9899" ry="16.0303"/>
<text text-anchor="middle" x="1440.4264" y="-12.5635" font-family="Times,serif" font-size="14.00" fill="#000000">property:madeOf</text>
</g>
<!-- http://www.iiitd.ac.in/sweb/a1/q2/property#madeOf&#45;&gt;http://www.w3.org/1999/02/22&#45;rdf&#45;syntax&#45;ns#Property -->
<g id="edge5" class="edge">
<title>http://www.iiitd.ac.in/sweb/a1/q2/property#madeOf&#45;&gt;http://www.w3.org/1999/02/22&#45;rdf&#45;syntax&#45;ns#Property</title>
<path fill="none" stroke="#000000" d="M1511.2079,-27.6395C1523.5933,-29.4249 1536.371,-31.1365 1548.4264,-32.5269 1598.0358,-38.2485 1728.5292,-26.718 1772.4264,-50.5269 1782.6437,-56.0686 1790.9857,-65.6559 1797.2236,-74.9085"/>
<polygon fill="#000000" stroke="#000000" points="1794.3188,-76.866 1802.5521,-83.5341 1800.2741,-73.187 1794.3188,-76.866"/>
<text text-anchor="middle" x="1793.9264" y="-54.3269" font-family="Times,serif" font-size="14.00" fill="#000000">a</text>
</g>
<!-- http://www.iiitd.ac.in/sweb/a1/q2/property#madeOf&#45;&gt;http://www.w3.org/2000/01/rdf&#45;schema#Resource -->
<g id="edge2" class="edge">
<title>http://www.iiitd.ac.in/sweb/a1/q2/property#madeOf&#45;&gt;http://www.w3.org/2000/01/rdf&#45;schema#Resource</title>
<path fill="none" stroke="#000000" d="M1378.3933,-28.9615C1355.1076,-36.7171 1336.9596,-48.4926 1349.4264,-65.5269 1355.016,-73.1644 1371.6628,-79.9013 1390.2645,-85.3356"/>
<polygon fill="#000000" stroke="#000000" points="1389.5512,-88.7695 1400.122,-88.0565 1391.4138,-82.0218 1389.5512,-88.7695"/>
<text text-anchor="middle" x="1392.4264" y="-54.3269" font-family="Times,serif" font-size="14.00" fill="#000000">rdfs:domain</text>
</g>
<!-- http://www.iiitd.ac.in/sweb/a1/q2/property#madeOf&#45;&gt;http://www.w3.org/2000/01/rdf&#45;schema#Resource -->
<g id="edge36" class="edge">
<title>http://www.iiitd.ac.in/sweb/a1/q2/property#madeOf&#45;&gt;http://www.w3.org/2000/01/rdf&#45;schema#Resource</title>
<path fill="none" stroke="#000000" d="M1443.7851,-32.7657C1446.1367,-44.3203 1449.3294,-60.0071 1452.0349,-73.2998"/>
<polygon fill="#000000" stroke="#000000" points="1448.6506,-74.2214 1454.0747,-83.3224 1455.51,-72.8253 1448.6506,-74.2214"/>
<text text-anchor="middle" x="1488.9264" y="-54.3269" font-family="Times,serif" font-size="14.00" fill="#000000">rdfs:range</text>
</g>
<!-- http://www.iiitd.ac.in/sweb/a1/q2/property#FruitMealPreference -->
<g id="node25" class="node">
<title>http://www.iiitd.ac.in/sweb/a1/q2/property#FruitMealPreference</title>
<ellipse fill="#e377c2" stroke="#e377c2" cx="1969.4264" cy="-16.2635" rx="164.5121" ry="16.0303"/>
<text text-anchor="middle" x="1969.4264" y="-12.5635" font-family="Times,serif" font-size="14.00" fill="#000000">property:FruitMealPreference</text>
</g>
<!-- http://www.iiitd.ac.in/sweb/a1/q2/property#FruitMealPreference&#45;&gt;http://www.w3.org/1999/02/22&#45;rdf&#45;syntax&#45;ns#Property -->
<g id="edge33" class="edge">
<title>http://www.iiitd.ac.in/sweb/a1/q2/property#FruitMealPreference&#45;&gt;http://www.w3.org/1999/02/22&#45;rdf&#45;syntax&#45;ns#Property</title>
<path fill="none" stroke="#000000" d="M1965.3208,-32.7331C1961.7887,-43.5729 1955.6102,-57.2409 1945.4264,-65.5269 1934.8188,-74.1578 1907.2305,-81.8506 1879.7376,-87.7495"/>
<polygon fill="#000000" stroke="#000000" points="1878.7268,-84.3844 1869.6446,-89.84 1880.1466,-91.239 1878.7268,-84.3844"/>
<text text-anchor="middle" x="1961.9264" y="-54.3269" font-family="Times,serif" font-size="14.00" fill="#000000">a</text>
</g>
<!-- http://www.iiitd.ac.in/sweb/a1/q2/property#FruitMealPreference&#45;&gt;http://www.w3.org/2000/01/rdf&#45;schema#Literal -->
<g id="edge9" class="edge">
<title>http://www.iiitd.ac.in/sweb/a1/q2/property#FruitMealPreference&#45;&gt;http://www.w3.org/2000/01/rdf&#45;schema#Literal</title>
<path fill="none" stroke="#000000" d="M1975.3534,-32.7657C1979.5445,-44.4347 1985.2493,-60.3181 1990.0535,-73.694"/>
<polygon fill="#000000" stroke="#000000" points="1986.8374,-75.0941 1993.5117,-83.3224 1993.4254,-72.7279 1986.8374,-75.0941"/>
<text text-anchor="middle" x="2023.9264" y="-54.3269" font-family="Times,serif" font-size="14.00" fill="#000000">rdfs:range</text>
</g>
<!-- http://www.iiitd.ac.in/sweb/a1/q2/property#FruitMealPreference&#45;&gt;http://www.w3.org/2000/01/rdf&#45;schema#Resource -->
<g id="edge41" class="edge">
<title>http://www.iiitd.ac.in/sweb/a1/q2/property#FruitMealPreference&#45;&gt;http://www.w3.org/2000/01/rdf&#45;schema#Resource</title>
<path fill="none" stroke="#000000" d="M1911.997,-31.5926C1893.7075,-36.9863 1873.5288,-43.4783 1855.4264,-50.5269 1841.1636,-56.0805 1839.1701,-61.4167 1824.4264,-65.5269 1774.0726,-79.5645 1638.5169,-89.6398 1547.0167,-95.0929"/>
<polygon fill="#000000" stroke="#000000" points="1546.6962,-91.6056 1536.9189,-95.6866 1547.1071,-98.5935 1546.6962,-91.6056"/>
<text text-anchor="middle" x="1898.4264" y="-54.3269" font-family="Times,serif" font-size="14.00" fill="#000000">rdfs:domain</text>
</g>
</g>
</svg>
